<!-- Generator: Adobe Illustrator 21.0.0, SVG Export Plug-In  -->
<svg version="1.1"
	 xmlns="http://www.w3.org/2000/svg" xmlns:xlink="http://www.w3.org/1999/xlink" xmlns:a="http://ns.adobe.com/AdobeSVGViewerExtensions/3.0/"
	 x="0px" y="0px" width="155.4px" height="84.7px" viewBox="0 0 155.4 84.7" style="enable-background:new 0 0 155.4 84.7;"
	 xml:space="preserve">
<style type="text/css">
	.st0{fill-rule:evenodd;clip-rule:evenodd;fill:#2B4C6E;}
	.st1{fill:#2B4C6E;}
	.st2{fill:#FFFFFF;}
	.st3{fill:none;stroke:#FFFFFF;stroke-width:2.7229;stroke-miterlimit:10;}
	.st4{fill-rule:evenodd;clip-rule:evenodd;fill:#FFFFFF;}
	.st5{fill-rule:evenodd;clip-rule:evenodd;fill:#728AAA;}
</style>
<defs>
</defs>
<g>
	<g>
		<path class="st0" d="M81.4,27.2c-0.1-0.2,0.1-0.4,0.3-0.5c0.8-0.3,1.6-0.5,2.4-0.8c-0.8,0.4-1.5,0.8-2.2,1.3
			C81.6,27.4,81.4,27.3,81.4,27.2 M82.3,30.6c-0.2-0.1-0.2-0.5,0-0.8c0.7-1.1,1.5-2.1,2.4-2.9c-0.7,1-1.3,2.1-1.9,3.3
			C82.7,30.5,82.5,30.7,82.3,30.6z M85.4,19.5c0.2,0,0.3,0.2,0.2,0.5c0,1,0,2,0.1,2.9c-0.3-0.9-0.4-1.8-0.6-2.8
			C85.2,19.7,85.3,19.5,85.4,19.5z M82,19.4c0.3-0.2,0.6-0.1,0.7,0.3c0.5,1.3,1.2,2.6,2,3.7c-1-0.9-1.9-2-2.7-3
			C81.7,20.1,81.8,19.7,82,19.4z M83.5,23.2c0.1,0,0.2,0.2,0.1,0.3c0,0.1-0.2,0.2-0.3,0.2c-0.1,0-0.2-0.2-0.1-0.3
			C83.3,23.3,83.4,23.2,83.5,23.2z M85.8,24.3c0.1,0,0.2,0.2,0.1,0.3c0,0.1-0.2,0.2-0.3,0.2c-0.1,0-0.2-0.2-0.1-0.3
			C85.6,24.3,85.7,24.2,85.8,24.3z M84.9,27.9c0.1,0,0.2,0.1,0.2,0.2c0,0.1-0.1,0.2-0.3,0.2c-0.1,0-0.2-0.1-0.2-0.2
			C84.7,28,84.8,27.9,84.9,27.9z M86.4,20.7c0.1,0.1,0.1,0.2,0.1,0.3c0,0.1-0.1,0.2-0.2,0.1c-0.1-0.1-0.1-0.2-0.1-0.3
			C86.2,20.7,86.3,20.7,86.4,20.7z M80.8,25.3c0.1,0,0.1,0.1,0.1,0.2c0,0.1-0.1,0.2-0.2,0.2c-0.1,0-0.1-0.1-0.1-0.2
			C80.7,25.4,80.8,25.3,80.8,25.3z M80.4,22.1c0.1,0,0.1,0.1,0.1,0.2c0,0.1-0.1,0.2-0.2,0.2c-0.1,0-0.1-0.1-0.1-0.2
			C80.2,22.1,80.3,22,80.4,22.1z M83.7,26.6c0.1,0,0.1,0.1,0.1,0.2c0,0.1-0.1,0.2-0.2,0.2c-0.1,0-0.1-0.1-0.1-0.2
			C83.6,26.7,83.6,26.6,83.7,26.6z M84.4,29.8c0.1,0,0.1,0.1,0.1,0.1c0,0.1-0.1,0.2-0.2,0.2c-0.1,0-0.1-0.1-0.1-0.1
			C84.2,29.9,84.3,29.8,84.4,29.8z M82.2,28.4c0.1,0,0.1,0.1,0.1,0.2c0,0.1-0.1,0.2-0.2,0.2c-0.1,0-0.1-0.1-0.1-0.2
			C82,28.4,82.1,28.4,82.2,28.4z M86.3,23.4c0.1,0,0.1,0.1,0.1,0.2c0,0.1-0.1,0.1-0.2,0.1c-0.1,0-0.1-0.1-0.1-0.2
			C86.1,23.4,86.2,23.3,86.3,23.4z M81.7,21.9c0.1,0,0.2,0.2,0.1,0.3c0,0.1-0.2,0.2-0.3,0.2c-0.1,0-0.2-0.2-0.1-0.3
			C81.5,22,81.6,21.9,81.7,21.9z M83.6,20.3c-0.1-0.2-0.2-0.4-0.3-0.6c0.2,0,0.4-0.1,0.6-0.1C83.8,19.8,83.7,20.1,83.6,20.3z
			 M84.2,25.1c0.1-0.2,0.2-0.4,0.4-0.6c0.1,0.2,0.2,0.4,0.3,0.6C84.6,25.2,84.4,25.1,84.2,25.1z M80.8,28.5
			c-0.2,0.1-0.4,0.2-0.6,0.3c0-0.3,0.1-0.5,0.1-0.8C80.5,28.2,80.7,28.3,80.8,28.5z M78.7,27.3c0.1,0,0.2-0.1,0.3-0.1
			c0-0.1,0-0.2,0.1-0.4c0.1,0.1,0.1,0.2,0.2,0.3c0.1,0,0.2,0,0.3,0c-0.1,0.1-0.1,0.2-0.2,0.3c0,0.1,0.1,0.2,0.1,0.3
			c-0.1,0-0.2-0.1-0.3-0.1c-0.1,0.1-0.1,0.2-0.2,0.2c0-0.1,0-0.2,0-0.4C78.9,27.5,78.8,27.4,78.7,27.3z M85,25.7
			c0.1,0,0.2-0.1,0.3-0.1c0-0.1,0-0.2,0.1-0.4c0.1,0.1,0.1,0.2,0.2,0.3c0.1,0,0.2,0,0.3,0c-0.1,0.1-0.1,0.2-0.2,0.3
			c0,0.1,0.1,0.2,0.1,0.3c-0.1,0-0.2-0.1-0.3-0.1c-0.1,0.1-0.1,0.2-0.2,0.2c0-0.1,0-0.2,0-0.4C85.2,25.9,85.1,25.8,85,25.7z
			 M90.9,26.6c0,0.1-0.3,0.1-0.6,0.1c-1-0.2-2-0.5-3-0.8c1,0.1,2.1,0.3,3.1,0.5C90.8,26.3,91,26.5,90.9,26.6z M89.7,24.5
			c0.1,0.1-0.1,0.2-0.3,0.2c-0.7-0.1-1.4-0.1-2.1,0c0.7-0.2,1.4-0.3,2-0.4C89.5,24.3,89.7,24.4,89.7,24.5z M89.1,21.8
			c0.1,0.2,0.1,0.4-0.1,0.5c-0.6,0.3-1.4,0.8-2.2,1.4c0.7-0.8,1.3-1.4,1.8-2C88.7,21.5,89,21.5,89.1,21.8z M86.8,29.6
			c-0.2,0.1-0.3,0-0.4-0.1c-0.2-0.6-0.4-1.3-0.6-2.1c0.4,0.7,0.7,1.3,1.1,1.8C87,29.4,87,29.5,86.8,29.6z M90.3,28.2
			c-0.2,0.1-0.5,0.2-0.8,0.1c-0.9-0.3-1.8-0.8-2.7-1.6c1.1,0.6,2.1,1,3.2,1.2C90.4,28,90.5,28.1,90.3,28.2z M91.4,26
			c-0.1,0-0.2-0.1-0.2-0.2c0-0.1,0.1-0.1,0.2,0c0.1,0,0.2,0.1,0.2,0.2C91.6,26,91.5,26,91.4,26z M88.1,26.8c-0.1,0-0.2-0.1-0.2-0.2
			c0-0.1,0.1-0.2,0.2-0.1c0.1,0,0.2,0.1,0.2,0.2C88.3,26.7,88.2,26.8,88.1,26.8z M86.7,22.6c-0.1-0.1-0.2-0.2-0.1-0.3
			c0-0.1,0.1-0.2,0.2-0.1c0.1,0.1,0.2,0.2,0.1,0.3C86.9,22.6,86.8,22.7,86.7,22.6z M85.5,29.4c-0.1,0-0.2-0.1-0.2-0.2
			c0-0.1,0.1-0.2,0.3-0.2c0.1,0,0.2,0.1,0.2,0.2C85.7,29.3,85.6,29.4,85.5,29.4z M90.3,25.7c-0.1,0-0.1-0.1-0.1-0.1
			c0-0.1,0.1-0.1,0.2,0c0.1,0,0.1,0.1,0.1,0.1C90.4,25.7,90.3,25.7,90.3,25.7z M91.1,27.2c-0.1,0-0.1,0-0.1-0.1c0,0,0.1-0.1,0.2-0.1
			c0.1,0,0.1,0,0.1,0.1C91.3,27.1,91.2,27.2,91.1,27.2z M87.7,24.2c-0.1,0-0.1-0.1-0.1-0.2c0-0.1,0.1-0.1,0.2-0.1
			c0.1,0,0.1,0.1,0.1,0.2C87.8,24.2,87.7,24.2,87.7,24.2z M87.3,21c-0.1,0-0.1-0.2-0.1-0.2c0-0.1,0.1-0.1,0.2-0.1
			c0.1,0.1,0.1,0.2,0.1,0.2C87.5,21,87.4,21.1,87.3,21z M89.1,23.4c-0.1,0-0.1-0.1-0.1-0.2c0-0.1,0.1-0.1,0.2,0
			c0.1,0,0.1,0.1,0.1,0.2C89.2,23.5,89.1,23.5,89.1,23.4z M85.3,27.1c-0.1,0-0.1-0.1-0.1-0.2c0-0.1,0.1-0.2,0.2-0.1
			c0.1,0,0.1,0.1,0.1,0.2C85.4,27.1,85.3,27.1,85.3,27.1z M89.9,27.3c-0.1,0-0.2-0.1-0.2-0.1c0-0.1,0.1-0.1,0.2-0.1
			c0.1,0,0.2,0.1,0.2,0.1C90.2,27.3,90.1,27.3,89.9,27.3z M88.5,28.4c0.2,0.1,0.3,0.1,0.5,0.1c-0.2,0.1-0.4,0.2-0.6,0.3
			C88.4,28.7,88.4,28.6,88.5,28.4z M87.2,25.3c-0.1,0.1-0.2,0.3-0.3,0.5c-0.1-0.2-0.2-0.3-0.3-0.5C86.8,25.3,87,25.3,87.2,25.3z
			 M90.2,24c0.2,0,0.3,0.1,0.5,0.1c0,0.1,0,0.2-0.1,0.3C90.4,24.3,90.3,24.2,90.2,24z M91.9,25.5c-0.1,0-0.1,0-0.2-0.1
			c0,0,0,0.1,0,0.1c-0.1-0.1-0.1-0.1-0.2-0.2c-0.1,0-0.1-0.1-0.2-0.1c0,0,0.1,0,0.1-0.1c0-0.1-0.1-0.1-0.1-0.2
			c0.1,0.1,0.1,0.1,0.2,0.2c0.1,0,0.1,0,0.2,0c0,0,0,0.1,0,0.1C91.7,25.4,91.8,25.4,91.9,25.5z M80.3,23.6c0.1-0.3,0.4-0.4,0.7-0.3
			c1,0.4,2.1,0.8,3.1,1.2c-1.1-0.1-2.2-0.3-3.3-0.4C80.4,24.2,80.2,23.9,80.3,23.6z"/>
		<path class="st0" d="M46.8,27.2c-0.1-0.2,0.1-0.4,0.3-0.5c0.8-0.3,1.6-0.5,2.4-0.8c-0.8,0.4-1.5,0.8-2.2,1.3
			C47.1,27.4,46.9,27.3,46.8,27.2 M47.8,30.6c-0.2-0.1-0.2-0.5,0-0.8c0.7-1.1,1.5-2.1,2.4-2.9c-0.7,1-1.3,2.1-1.9,3.3
			C48.2,30.5,47.9,30.7,47.8,30.6z M50.9,19.5c0.2,0,0.3,0.2,0.2,0.5c0,1,0,2,0.1,2.9C51,21.9,50.8,21,50.7,20
			C50.6,19.7,50.7,19.5,50.9,19.5z M47.5,19.4c0.3-0.2,0.6-0.1,0.7,0.3c0.5,1.3,1.2,2.6,2,3.7c-1-0.9-1.9-2-2.7-3
			C47.2,20.1,47.2,19.7,47.5,19.4z M49,23.2c0.1,0,0.2,0.2,0.1,0.3c0,0.1-0.2,0.2-0.3,0.2c-0.1,0-0.2-0.2-0.1-0.3
			C48.7,23.3,48.8,23.2,49,23.2z M51.3,24.3c0.1,0,0.2,0.2,0.1,0.3c0,0.1-0.2,0.2-0.3,0.2c-0.1,0-0.2-0.2-0.1-0.3
			C51,24.3,51.1,24.2,51.3,24.3z M50.3,27.9c0.1,0,0.2,0.1,0.2,0.2c0,0.1-0.1,0.2-0.3,0.2c-0.1,0-0.2-0.1-0.2-0.2
			C50.1,28,50.2,27.9,50.3,27.9z M51.9,20.7C52,20.8,52,20.9,52,21c0,0.1-0.2,0.2-0.2,0.1c-0.1-0.1-0.1-0.2-0.1-0.3
			C51.7,20.7,51.8,20.7,51.9,20.7z M46.3,25.3c0.1,0,0.1,0.1,0.1,0.2c0,0.1-0.1,0.2-0.2,0.2c-0.1,0-0.1-0.1-0.1-0.2
			C46.1,25.4,46.2,25.3,46.3,25.3z M45.8,22.1c0.1,0,0.1,0.1,0.1,0.2c0,0.1-0.1,0.2-0.2,0.2c-0.1,0-0.1-0.1-0.1-0.2
			C45.6,22.1,45.7,22,45.8,22.1z M49.2,26.6c0.1,0,0.1,0.1,0.1,0.2c0,0.1-0.1,0.2-0.2,0.2C49,27,49,26.9,49,26.8
			C49,26.7,49.1,26.6,49.2,26.6z M49.9,29.8c0.1,0,0.1,0.1,0.1,0.1c0,0.1-0.1,0.2-0.2,0.2c-0.1,0-0.1-0.1-0.1-0.1
			C49.7,29.9,49.8,29.8,49.9,29.8z M47.6,28.4c0.1,0,0.1,0.1,0.1,0.2c0,0.1-0.1,0.2-0.2,0.2c-0.1,0-0.1-0.1-0.1-0.2
			C47.4,28.4,47.5,28.4,47.6,28.4z M51.7,23.4c0.1,0,0.1,0.1,0.1,0.2c0,0.1-0.1,0.1-0.2,0.1c-0.1,0-0.1-0.1-0.1-0.2
			C51.6,23.4,51.7,23.3,51.7,23.4z M47.2,21.9c0.1,0,0.2,0.2,0.1,0.3c0,0.1-0.2,0.2-0.3,0.2c-0.1,0-0.2-0.2-0.1-0.3
			C46.9,22,47.1,21.9,47.2,21.9z M49.1,20.3c-0.1-0.2-0.2-0.4-0.3-0.6c0.2,0,0.4-0.1,0.6-0.1C49.3,19.8,49.2,20.1,49.1,20.3z
			 M49.7,25.1c0.1-0.2,0.2-0.4,0.4-0.6c0.1,0.2,0.2,0.4,0.3,0.6C50.1,25.2,49.9,25.1,49.7,25.1z M46.3,28.5
			c-0.2,0.1-0.4,0.2-0.6,0.3c0-0.3,0.1-0.5,0.1-0.8C45.9,28.2,46.1,28.3,46.3,28.5z M44.2,27.3c0.1,0,0.2-0.1,0.3-0.1
			c0-0.1,0-0.2,0.1-0.4c0.1,0.1,0.1,0.2,0.2,0.3c0.1,0,0.2,0,0.3,0c-0.1,0.1-0.1,0.2-0.2,0.3c0,0.1,0.1,0.2,0.1,0.3
			c-0.1,0-0.2-0.1-0.3-0.1c-0.1,0.1-0.1,0.2-0.2,0.2c0-0.1,0-0.2,0-0.4C44.3,27.5,44.2,27.4,44.2,27.3z M50.5,25.7
			c0.1,0,0.2-0.1,0.3-0.1c0-0.1,0-0.2,0.1-0.4c0.1,0.1,0.1,0.2,0.2,0.3c0.1,0,0.2,0,0.3,0c-0.1,0.1-0.1,0.2-0.2,0.3
			c0,0.1,0.1,0.2,0.1,0.3c-0.1,0-0.2-0.1-0.3-0.1c-0.1,0.1-0.1,0.2-0.2,0.2c0-0.1,0-0.2,0-0.4C50.6,25.9,50.5,25.8,50.5,25.7z
			 M56.4,26.6c0,0.1-0.3,0.1-0.6,0.1c-1-0.2-2-0.5-3-0.8c1,0.1,2.1,0.3,3.1,0.5C56.2,26.3,56.4,26.5,56.4,26.6z M55.2,24.5
			c0.1,0.1-0.1,0.2-0.3,0.2c-0.7-0.1-1.4-0.1-2.1,0c0.7-0.2,1.4-0.3,2-0.4C54.9,24.3,55.1,24.4,55.2,24.5z M54.5,21.8
			c0.1,0.2,0.1,0.4-0.1,0.5c-0.6,0.3-1.4,0.8-2.2,1.4c0.7-0.8,1.3-1.4,1.8-2C54.2,21.5,54.4,21.5,54.5,21.8z M52.3,29.6
			c-0.2,0.1-0.3,0-0.4-0.1c-0.2-0.6-0.4-1.3-0.6-2.1c0.4,0.7,0.7,1.3,1.1,1.8C52.5,29.4,52.4,29.5,52.3,29.6z M55.8,28.2
			c-0.2,0.1-0.5,0.2-0.8,0.1c-0.9-0.3-1.8-0.8-2.7-1.6c1.1,0.6,2.1,1,3.2,1.2C55.8,28,55.9,28.1,55.8,28.2z M56.9,26
			c-0.1,0-0.2-0.1-0.2-0.2c0-0.1,0.1-0.1,0.2,0c0.1,0,0.2,0.1,0.2,0.2C57,26,57,26,56.9,26z M53.5,26.8c-0.1,0-0.2-0.1-0.2-0.2
			c0-0.1,0.1-0.2,0.2-0.1c0.1,0,0.2,0.1,0.2,0.2C53.7,26.7,53.6,26.8,53.5,26.8z M52.1,22.6C52,22.6,52,22.4,52,22.3
			c0-0.1,0.1-0.2,0.2-0.1c0.1,0.1,0.2,0.2,0.1,0.3C52.4,22.6,52.2,22.7,52.1,22.6z M50.9,29.4c-0.1,0-0.2-0.1-0.2-0.2
			c0-0.1,0.1-0.2,0.3-0.2c0.1,0,0.2,0.1,0.2,0.2C51.1,29.3,51,29.4,50.9,29.4z M55.7,25.7c-0.1,0-0.1-0.1-0.1-0.1
			c0-0.1,0.1-0.1,0.2,0c0.1,0,0.1,0.1,0.1,0.1C55.9,25.7,55.8,25.7,55.7,25.7z M56.6,27.2c-0.1,0-0.1,0-0.1-0.1c0,0,0.1-0.1,0.2-0.1
			c0.1,0,0.1,0,0.1,0.1C56.7,27.1,56.7,27.2,56.6,27.2z M53.1,24.2C53,24.1,53,24.1,53,24c0-0.1,0.1-0.1,0.2-0.1
			c0.1,0,0.1,0.1,0.1,0.2C53.3,24.2,53.2,24.2,53.1,24.2z M52.8,21c-0.1,0-0.1-0.2-0.1-0.2c0-0.1,0.1-0.1,0.2-0.1
			c0.1,0.1,0.1,0.2,0.1,0.2C52.9,21,52.8,21.1,52.8,21z M54.5,23.4c-0.1,0-0.1-0.1-0.1-0.2c0-0.1,0.1-0.1,0.2,0
			c0.1,0,0.1,0.1,0.1,0.2C54.6,23.5,54.6,23.5,54.5,23.4z M50.7,27.1c-0.1,0-0.1-0.1-0.1-0.2c0-0.1,0.1-0.2,0.2-0.1
			c0.1,0,0.1,0.1,0.1,0.2C50.9,27.1,50.8,27.1,50.7,27.1z M55.4,27.3c-0.1,0-0.2-0.1-0.2-0.1c0-0.1,0.1-0.1,0.2-0.1
			c0.1,0,0.2,0.1,0.2,0.1C55.6,27.3,55.5,27.3,55.4,27.3z M53.9,28.4c0.2,0.1,0.3,0.1,0.5,0.1c-0.2,0.1-0.4,0.2-0.6,0.3
			C53.8,28.7,53.9,28.6,53.9,28.4z M52.7,25.3c-0.1,0.1-0.2,0.3-0.3,0.5c-0.1-0.2-0.2-0.3-0.3-0.5C52.3,25.3,52.5,25.3,52.7,25.3z
			 M55.6,24c0.2,0,0.3,0.1,0.5,0.1c0,0.1,0,0.2-0.1,0.3C55.9,24.3,55.7,24.2,55.6,24z M57.3,25.5c-0.1,0-0.1,0-0.2-0.1
			c0,0,0,0.1,0,0.1c-0.1-0.1-0.1-0.1-0.2-0.2c-0.1,0-0.1-0.1-0.2-0.1c0,0,0.1,0,0.1-0.1c0-0.1-0.1-0.1-0.1-0.2
			c0.1,0.1,0.1,0.1,0.2,0.2c0.1,0,0.1,0,0.2,0c0,0,0,0.1,0,0.1C57.2,25.4,57.2,25.4,57.3,25.5z M45.7,23.6c0.1-0.3,0.4-0.4,0.7-0.3
			c1,0.4,2.1,0.8,3.1,1.2c-1.1-0.1-2.2-0.3-3.3-0.4C45.9,24.2,45.6,23.9,45.7,23.6z"/>
		<path class="st1" d="M59.1,31.8l2.4,3.7l2.4-3.7h5l-4.7,6.9l5.1,7.5h-5.1l-2.7-4.1l-2.7,4.1h-5l5.1-7.3l-4.7-7H59.1z M99.3,39
			c0,4.2-3.3,7.4-7.8,7.4c-4.5,0-7.8-3.1-7.8-7.4c0-4.2,3.3-7.3,7.8-7.3C96,31.7,99.3,34.8,99.3,39z M88,39c0,2.2,1.6,3.8,3.5,3.8
			s3.4-1.6,3.4-3.8c0-2.2-1.5-3.7-3.4-3.7C89.6,35.2,88,36.8,88,39z M82.9,36.9c0,3.4-2.1,5.4-5.8,5.4h-2.3v3.9h-4.3V31.8H77
			C80.7,31.8,82.9,33.6,82.9,36.9z M78.8,37c0-1.2-0.7-1.9-2-1.9h-2V39h2C78.1,39,78.8,38.3,78.8,37z M52.8,31.8v3.3h-7.5v2.3h6.8
			v3.3h-6.8v2.3H53v3.3H41.1V31.8H52.8z"/>
		<path class="st0" d="M102,38.9c0,2-0.2,3.9-0.5,5.8l0.7,0.5c0.5-2.4,0.8-4.8,0.8-7.3c0-18.7-15.1-33.8-33.8-33.8
			c-18.7,0-33.8,15.1-33.8,33.8c0,3.6,0.6,7,1.6,10.2l0.5-0.7c-0.7-2.7-1.1-5.5-1.1-8.4c0-18.1,14.7-32.8,32.8-32.8
			C87.3,6.1,102,20.8,102,38.9"/>
		<path class="st0" d="M82.4,4.5h8.3c0,0,1.6,0.6,0.5,2.1c-1.1,1.5-2.2,2.7-5,2.7c-2.8,0-4.7-2.9-4.7-3.5
			C81.4,5.2,81.6,4.8,82.4,4.5"/>
		<path class="st0" d="M48.2,5h8.3c0,0,1.6,0.6,0.5,2.1c-1.1,1.5-2.2,2.7-5,2.7c-2.8,0-4.7-2.9-4.7-3.5C47.2,5.7,47.4,5.3,48.2,5"/>
		<path class="st0" d="M36.3,19.1h8.3c0,0,1.6,0.6,0.5,2.1c-1.1,1.5-2.2,2.7-5,2.7c-2.8,0-4.7-2.9-4.7-3.5
			C35.4,19.8,35.6,19.3,36.3,19.1"/>
		<path class="st0" d="M32.6,37.5h8.3c0,0,1.6,0.6,0.5,2.1c-1.1,1.5-2.2,2.7-5,2.7c-2.8,0-4.7-2.9-4.7-3.5
			C31.6,38.1,31.9,37.7,32.6,37.5"/>
		<path class="st0" d="M94.6,19.1h8.3c0,0,1.6,0.6,0.5,2.1c-1.1,1.5-2.2,2.7-5,2.7c-2.8,0-4.7-2.9-4.7-3.5
			C93.6,19.8,93.9,19.3,94.6,19.1"/>
		<path class="st0" d="M98.9,37.5h8.3c0,0,1.6,0.6,0.5,2.1c-1.1,1.5-2.2,2.7-5,2.7c-2.8,0-4.7-2.9-4.7-3.5
			C98,38.1,98.2,37.7,98.9,37.5"/>
		<path class="st0" d="M59.5,16L56,8.5l-0.7,0.5c0,0,0,0,0,0.1L55,9.2l-1.3,2.9l-1.2-1.9L52,10.5l4.3,7.2l0.6-0.6l-0.3-0.4l2.3,0.1
			L59.5,16z M55.4,9.2c0.2,0.5,0.8,1.7,1.4,3L54.4,12L55.4,9.2z M57,12.8L56,15.7l-1.8-2.8L57,12.8z M56.2,16.1L56.2,16.1l1.1-2.8
			c0.5,1.1,1,2.2,1.3,2.8L56.2,16.1z"/>
		<path class="st0" d="M78.9,16.4l3-7.9l0.8,0.4c0,0,0,0,0,0.1L83,9.1l1.7,2.7l1.1-2.1l0.6,0.3l-3.8,7.7l-0.7-0.5l0.2-0.4l-2.5,0.4
			L78.9,16.4z M82.6,9.1c-0.2,0.5-0.7,1.8-1.2,3.1l2.5-0.5L82.6,9.1z M81.2,12.9l1.5,2.8l1.6-3L81.2,12.9z M82.4,16.1L82.4,16.1
			L81,13.5c-0.4,1.2-0.9,2.3-1.1,2.9L82.4,16.1z"/>
		<path class="st0" d="M69.2,8.5c15.4,0,27.9,11.5,28,25.8c0-0.5,0-1,0-1.5c0-14.3-12.5-25.8-28-25.8c-15.4,0-28,11.6-28,25.8
			c0,0,0,0,0,0C42.1,19.2,54.3,8.5,69.2,8.5"/>
		<path class="st2" d="M34.9,51.9c-1.6,0.7-4.9,2.6-6.5,3.4c-0.3,0.1-0.4,0.3-0.5,0.6c-0.6,2.1-1.4,4.1-2.3,6.2
			c-1.2,2.9-2.8,5.7-4.7,8.2c-2.4,3.2-5,6.2-8,8.9c-1.1,1-2.2,1.9-3.5,2.6c-1.3,0.7-2.7,1.3-4.2,1.2c-0.9,0-1.8-0.3-2.6-0.8
			c-1.1-0.7-1.6-1.8-1.2-3.2c0.3-1.3,0.9-2.5,1.7-3.7c1.6-2.7,3.6-4.9,5.8-7c2.4-2.3,4.9-4.5,7.6-6.4c2.3-1.6,4.8-3.1,7.1-4.6
			c0.1-0.1,0.3-0.3,0.4-0.4c1.1-2.4,2-4.8,2.6-7.3c0.3-1.3,0.5-2.7,0.7-4.2c0.1-1.1,0.1-2.3,0.1-3.4c0-0.7-0.2-1.5-0.5-2.1
			c-0.6-1.3-1.9-1.9-3.4-1.6c-1.1,0.2-2.2,0.7-3.2,1.4c-1.4,0.9-2.5,2.1-3.5,3.4c-0.7,0.9-1.5,2-1.9,3.1c-0.4,0.8-0.7,1.6-0.8,2.6
			c0,0.4,0,0.6,0.4,0.8c0.1,0.1,0.3,0.3,0.4,0.4c0,0,0,0.2,0,0.3c0,0-0.1,0-0.2,0c-0.7-0.2-1.3-0.6-1.3-1.5c0-0.8,0.3-1.6,0.6-2.4
			c0.9-2.1,2-4,3.5-5.7c1.3-1.6,2.9-2.7,4.8-3.3c1.6-0.5,3-0.2,4.4,0.9c1.3,1.1,2.1,2.5,2.5,4.2c0.4,1.6,0.4,3.3,0.4,5
			c-0.1,1.9-0.4,3.8-0.9,5.7c-0.1,0.4-0.2,0.8-0.3,1.3l1.5-0.8c2.5-1.3,2-1.3,4.8-2.3c0.1,0,0.2-0.1,0.3,0c0.1,0,0.2,0.1,0.3,0.3
			C35.2,51.7,35,51.8,34.9,51.9 M23.2,58.5L23.2,58.5l-2.1,1.2c-1.2,0.8-2.5,1.6-3.7,2.5c-1.2,0.8-2.3,1.6-3.3,2.5
			c-1,0.8-2,1.8-2.9,2.7c-1.8,1.7-3.4,3.4-4.8,5.4c-1.2,1.7-2.2,3.5-2.8,5.4c-0.2,0.7-0.3,1.3-0.3,2c0,0.3,0.1,0.4,0.3,0.3
			c0.3-0.1,0.7-0.3,0.9-0.4c1.2-0.7,2.1-1.7,3.2-2.6c1.3-1.2,2.5-2.3,3.6-3.6c0.4-0.5,0.9-1,1.4-1.4c0.3-0.3,0.5-0.5,0.8-0.8
			c0.7-0.8,1.4-1.6,2.1-2.4c1.5-1.5,2.8-3.2,4.1-4.9c1.1-1.5,2.1-3.1,2.9-4.8C22.8,59.3,23,58.9,23.2,58.5z"/>
		<path class="st3" d="M34.9,51.9c-1.6,0.7-4.9,2.6-6.5,3.4c-0.3,0.1-0.4,0.3-0.5,0.6c-0.6,2.1-1.4,4.1-2.3,6.2
			c-1.2,2.9-2.8,5.7-4.7,8.2c-2.4,3.2-5,6.2-8,8.9c-1.1,1-2.2,1.9-3.5,2.6c-1.3,0.7-2.7,1.3-4.2,1.2c-0.9,0-1.8-0.3-2.6-0.8
			c-1.1-0.7-1.6-1.8-1.2-3.2c0.3-1.3,0.9-2.5,1.7-3.7c1.6-2.7,3.6-4.9,5.8-7c2.4-2.3,4.9-4.5,7.6-6.4c2.3-1.6,4.8-3.1,7.1-4.6
			c0.1-0.1,0.3-0.3,0.4-0.4c1.1-2.4,2-4.8,2.6-7.3c0.3-1.3,0.5-2.7,0.7-4.2c0.1-1.1,0.1-2.3,0.1-3.4c0-0.7-0.2-1.5-0.5-2.1
			c-0.6-1.3-1.9-1.9-3.4-1.6c-1.1,0.2-2.2,0.7-3.2,1.4c-1.4,0.9-2.5,2.1-3.5,3.4c-0.7,0.9-1.5,2-1.9,3.1c-0.4,0.8-0.7,1.6-0.8,2.6
			c0,0.4,0,0.6,0.4,0.8c0.1,0.1,0.3,0.3,0.4,0.4c0,0,0,0.2,0,0.3c0,0-0.1,0-0.2,0c-0.7-0.2-1.3-0.6-1.3-1.5c0-0.8,0.3-1.6,0.6-2.4
			c0.9-2.1,2-4,3.5-5.7c1.3-1.6,2.9-2.7,4.8-3.3c1.6-0.5,3-0.2,4.4,0.9c1.3,1.1,2.1,2.5,2.5,4.2c0.4,1.6,0.4,3.3,0.4,5
			c-0.1,1.9-0.4,3.8-0.9,5.7c-0.1,0.4-0.2,0.8-0.3,1.3l1.5-0.8c2.5-1.3,2-1.3,4.8-2.3c0.1,0,0.2-0.1,0.3,0c0.1,0,0.2,0.1,0.3,0.3
			C35.2,51.7,35,51.8,34.9,51.9z M23.2,58.5L23.2,58.5l-2.1,1.2c-1.2,0.8-2.5,1.6-3.7,2.5c-1.2,0.8-2.3,1.6-3.3,2.5
			c-1,0.8-2,1.8-2.9,2.7c-1.8,1.7-3.4,3.4-4.8,5.4c-1.2,1.7-2.2,3.5-2.8,5.4c-0.2,0.7-0.3,1.3-0.3,2c0,0.3,0.1,0.4,0.3,0.3
			c0.3-0.1,0.7-0.3,0.9-0.4c1.2-0.7,2.1-1.7,3.2-2.6c1.3-1.2,2.5-2.3,3.6-3.6c0.4-0.5,0.9-1,1.4-1.4c0.3-0.3,0.5-0.5,0.8-0.8
			c0.7-0.8,1.4-1.6,2.1-2.4c1.5-1.5,2.8-3.2,4.1-4.9c1.1-1.5,2.1-3.1,2.9-4.8C22.8,59.3,23,58.9,23.2,58.5z"/>
		<path class="st2" d="M47.2,52c0.4-0.7,0.5-0.1-0.1,1.3c-0.8,1.7-5,9.3-5,9.3s-1.9,3.4-3.8,3.5c-2.3,0-2.2-3.1-1.8-5.1
			c0.2-1,0.6-2,0.8-3c0-0.1,0.1-0.4,0.1-0.5c-0.2-0.1-0.3,0.3-0.3,0.4c-0.4,0.6-0.7,1.3-1,1.9c-0.4,0.6-0.6,1.3-1,2
			c0,0.1-0.8,1.5-1.5,1.5c-1.2,0-2.3-0.4-3-1.7c-0.1-0.3-0.7-1.3-0.5-3.3c0.3-1.4,0.8-2.9,1.5-4.3c0.7-1.4,1.2-2.8,2-4.1
			c0.7-0.8,2.1,0.5,1.6,2.1c-0.2,0.5-0.4,0.9-0.5,1.4c-0.3,1-0.5,1.9-0.9,2.9c-0.3,0.7-0.3,1.5-0.5,2.3c0,0.3-0.1,0.6-0.1,0.9
			c-0.1,0.5,0,0.9,0.3,1.3c0.1,0.1,0.3,0,0.4-0.1c0.4-0.4,0.8-0.9,1.1-1.5c0.8-1.4,1.6-2.4,2.3-3.8c0.5-1,1.1-2,1.6-3.4
			c0.3-0.6,1.7-2.9,1.7-2.9s0.4-0.7,1.1-0.5c0.1,0,0.2,0,0.3,0.1c0.5,0.2,0.7,0.5,0.8,1.1c0.1,0.9-0.5,3.2-1,4
			c-0.3,1.7-0.8,3.4-1.4,5.1c-0.1,0.4-1,3.3-1.1,3.7c-0.5,2,0.9,0.5,0.9,0.5s6.2-9.7,7-10.8C47.1,52.1,47.2,52.1,47.2,52"/>
		<path class="st3" d="M47.2,52c0.4-0.7,0.5-0.1-0.1,1.3c-0.8,1.7-5,9.3-5,9.3s-1.9,3.4-3.8,3.5c-2.3,0-2.2-3.1-1.8-5.1
			c0.2-1,0.6-2,0.8-3c0-0.1,0.1-0.4,0.1-0.5c-0.2-0.1-0.3,0.3-0.3,0.4c-0.4,0.6-0.7,1.3-1,1.9c-0.4,0.6-0.6,1.3-1,2
			c0,0.1-0.8,1.5-1.5,1.5c-1.2,0-2.3-0.4-3-1.7c-0.1-0.3-0.7-1.3-0.5-3.3c0.3-1.4,0.8-2.9,1.5-4.3c0.7-1.4,1.2-2.8,2-4.1
			c0.7-0.8,2.1,0.5,1.6,2.1c-0.2,0.5-0.4,0.9-0.5,1.4c-0.3,1-0.5,1.9-0.9,2.9c-0.3,0.7-0.3,1.5-0.5,2.3c0,0.3-0.1,0.6-0.1,0.9
			c-0.1,0.5,0,0.9,0.3,1.3c0.1,0.1,0.3,0,0.4-0.1c0.4-0.4,0.8-0.9,1.1-1.5c0.8-1.4,1.6-2.4,2.3-3.8c0.5-1,1.1-2,1.6-3.4
			c0.3-0.6,1.7-2.9,1.7-2.9s0.4-0.7,1.1-0.5c0.1,0,0.2,0,0.3,0.1c0.5,0.2,0.7,0.5,0.8,1.1c0.1,0.9-0.5,3.2-1,4
			c-0.3,1.7-0.8,3.4-1.4,5.1c-0.1,0.4-1,3.3-1.1,3.7c-0.5,2,0.9,0.5,0.9,0.5s6.2-9.7,7-10.8C47.1,52.1,47.2,52.1,47.2,52z"/>
		<path class="st2" d="M62.2,51.4c0,0.1-0.1,0.3-0.1,0.4c-0.1,0.5-0.2,0.9-0.4,1.4c-0.2,0.4-4.6,9.1-5,10c-0.5,1.2-1.1,2.4-1.8,3.6
			c-0.2,0.4-0.4,0.9-0.6,1.3c-0.3,0.7-0.8,1.1-1.4,1.5c-0.9,0.5-4.9,0.6-3.8-6.3l0.3-1.3c0.1-0.2,0.1-0.5,0.2-0.7
			c0.7-1.7,1.2-3.4,1.9-5.1c0.9-2.2,2.1-4.3,3-6.5c0.3-0.6,0.5-1.2,0.7-1.9c0.1-0.4,0.1-0.9,0.1-1.3c-0.3-0.2-0.5,0-0.6,0.1
			c-0.3,0.3-0.5,0.7-0.8,1c-0.5,0.7-0.9,1.3-1.3,1.9c-0.5,0.8-1.1,1.6-1.5,2.5c-0.4,0.9-0.8,1.9-1.3,2.7c-0.1,0.1-0.1,0.3-0.2,0.4
			c-0.1,0.7-0.5,1.2-0.8,1.8c-0.1,0.3-0.3,0.6-0.5,0.9c-0.3,0.7-1.6,3.1-1.7,3.2c-0.5,0.5-1,1.1-1.7,1.2c-0.4,0-2-0.2-1.7-2.7
			c0.1-0.6,0.2-1.2,0.3-1.7c0.2-1.2,1.7-6.9,2.5-8.5c0.5-1.4,1.5-0.8,1.5-0.8s1.6,1,1.3,2.5c0,0.8-0.8,3.3-0.8,3.3l-0.4,1.3
			c0,0,2.7-4.6,3.4-6.2c1.5-2.8,3.2-4.5,3.4-4.8c1.7-1.7,4,0.6,3.7,2.6c-0.2,1.5-1,4.2-1.5,5.5c-0.9,2.4-1.6,4.2-2.5,6.6
			c-1,3.5-1.3,6.1-1.3,7.3c0,0.1,0,0.3,0.1,0.4c0.1,0,0.2,0,0.2-0.1c0.3-0.3,1.9-3.2,2.4-4.1c0.5-1.2,5.2-10.6,5.9-11.6
			c0.1-0.1,0.2-0.2,0.3-0.3h0.1C62.1,51,62.1,51.2,62.2,51.4"/>
		<path class="st3" d="M62.2,51.4c0,0.1-0.1,0.3-0.1,0.4c-0.1,0.5-0.2,0.9-0.4,1.4c-0.2,0.4-4.6,9.1-5,10c-0.5,1.2-1.1,2.4-1.8,3.6
			c-0.2,0.4-0.4,0.9-0.6,1.3c-0.3,0.7-0.8,1.1-1.4,1.5c-0.9,0.5-4.9,0.6-3.8-6.3l0.3-1.3c0.1-0.2,0.1-0.5,0.2-0.7
			c0.7-1.7,1.2-3.4,1.9-5.1c0.9-2.2,2.1-4.3,3-6.5c0.3-0.6,0.5-1.2,0.7-1.9c0.1-0.4,0.1-0.9,0.1-1.3c-0.3-0.2-0.5,0-0.6,0.1
			c-0.3,0.3-0.5,0.7-0.8,1c-0.5,0.7-0.9,1.3-1.3,1.9c-0.5,0.8-1.1,1.6-1.5,2.5c-0.4,0.9-0.8,1.9-1.3,2.7c-0.1,0.1-0.1,0.3-0.2,0.4
			c-0.1,0.7-0.5,1.2-0.8,1.8c-0.1,0.3-0.3,0.6-0.5,0.9c-0.3,0.7-1.6,3.1-1.7,3.2c-0.5,0.5-1,1.1-1.7,1.2c-0.4,0-2-0.2-1.7-2.7
			c0.1-0.6,0.2-1.2,0.3-1.7c0.2-1.2,1.7-6.9,2.5-8.5c0.5-1.4,1.5-0.8,1.5-0.8s1.6,1,1.3,2.5c0,0.8-0.8,3.3-0.8,3.3l-0.4,1.3
			c0,0,2.7-4.6,3.4-6.2c1.5-2.8,3.2-4.5,3.4-4.8c1.7-1.7,4,0.6,3.7,2.6c-0.2,1.5-1,4.2-1.5,5.5c-0.9,2.4-1.6,4.2-2.5,6.6
			c-1,3.5-1.3,6.1-1.3,7.3c0,0.1,0,0.3,0.1,0.4c0.1,0,0.2,0,0.2-0.1c0.3-0.3,1.9-3.2,2.4-4.1c0.5-1.2,5.2-10.6,5.9-11.6
			c0.1-0.1,0.2-0.2,0.3-0.3h0.1C62.1,51,62.1,51.2,62.2,51.4z"/>
		<path class="st2" d="M62,59.9c-0.4,1.1-0.8,2.3-1,3.5c-0.1,0.5-0.1,1-0.1,1.5c0,0.1,0.1,0.3,0.1,0.4c0.1,0,0.2,0,0.2,0
			c2.8-0.8,8.9-12.9,8.9-12.9s1-0.3,0.1,1.1c-0.8,1.8-7.4,15.2-10,13.9c-0.4-0.2-0.7-0.4-1-0.5c-1.7-1.5-1.7-4.2-1.5-5.2
			c0.3-1.3,0.7-2.5,1.2-3.8c0.4-0.9,2.3-5.4,2.4-6c0.2-0.7,0.4-1.3,0.7-2c0.2-0.5,0.4-1.1,0.9-1.6c0.1,0,0.3-0.1,0.5,0
			c1,0,1.7,0.8,1.6,1.8c0,0.5-0.1,1-0.3,1.5c-0.3,1.6-0.9,3-1.4,4.5C62.9,57.4,62.4,58.6,62,59.9z"/>
		<path class="st3" d="M62,59.9c-0.4,1.1-0.8,2.3-1,3.5c-0.1,0.5-0.1,1-0.1,1.5c0,0.1,0.1,0.3,0.1,0.4c0.1,0,0.2,0,0.2,0
			c2.8-0.8,8.9-12.9,8.9-12.9s1-0.3,0.1,1.1c-0.8,1.8-7.4,15.2-10,13.9c-0.4-0.2-0.7-0.4-1-0.5c-1.7-1.5-1.7-4.2-1.5-5.2
			c0.3-1.3,0.7-2.5,1.2-3.8c0.4-0.9,2.3-5.4,2.4-6c0.2-0.7,0.4-1.3,0.7-2c0.2-0.5,0.4-1.1,0.9-1.6c0.1,0,0.3-0.1,0.5,0
			c1,0,1.7,0.8,1.6,1.8c0,0.5-0.1,1-0.3,1.5c-0.3,1.6-0.9,3-1.4,4.5C62.9,57.4,62.4,58.6,62,59.9z"/>
		<path class="st2" d="M85.7,53.7c-0.5,0.8-3.5,7.2-4.2,8.2c0,0.1-0.1,0.1-0.1,0.2c-0.7,1.5-0.9,1.7-1.9,2.9c-0.3,0.4-1,0.7-1.5,1.1
			c-0.2,0-0.5,0.1-0.8,0.1c-0.3,0-0.5,0-0.9,0.1c-0.4-0.3-0.9-0.7-1.3-1c-0.1-0.1-0.2-0.2-0.3-0.3c-0.6-1-1-2-1-3.2
			c0-0.1,0-0.1,0-0.2c0.3-1,0.4-2.1,0.9-3c0.1-0.3,0.2-0.5,0.3-0.8c0.3-0.8,0.6-1.6,0.9-2.5c0.2-0.6,0.5-1.1,0.8-1.7
			c0.2-0.4,0.3-0.7,0.4-1.1c-0.1-0.2-0.2,0-0.3,0c-0.7,1.2-1.5,2.4-2.1,3.7c-0.4,0.9-0.9,1.7-1.3,2.6c-0.1,0.3-0.4,0.6-0.5,0.9
			c-0.1,0.2-1.6,2.5-2.2,3.3c-0.1,0.1-0.3,0.3-0.5,0.3c-0.2,0.1-0.5,0.1-0.7,0.1c-0.3,0-1.9-0.1-2.6-1.4c-0.1,0-0.8-1.6-0.7-3.1
			c0.2-1.5,0.7-2.9,1.3-4.2c0.3-0.5,0.6-1,0.9-1.5c0.2-0.3,0.4-0.6,0.6-0.9c0.2-0.3,0.4-0.6,0.7-0.9c0.3-0.4,0.6-0.8,0.9-1.2
			c1.1-1.2,1.7-1.3,1.7-1.4c0.8-0.5,2-0.5,2.8-0.3c1.2,0.5,1.5,2,1.7,2.7c0.3-0.4,0.8-1.1,1.1-1.6c0.2-0.3,0.6-0.8,1-1.1
			c0.5-0.4,1.7,0.7,2,1.2c0.3,0.4,0.3,0.8,0.2,1.3c-0.1,0.2-0.4,1.1-0.7,1.9c-0.4,1.1-0.9,2.2-1.3,3.3c-0.5,1.2-1,2.5-1.4,3.7
			c-0.1,0.3-0.2,0.7-0.4,1c-0.3,0.8-0.4,1.6-0.5,2.3c0,0.3,0.3,0.9,0.3,0.9s0.4,1.3,3.2-3c0.1-0.3,0.4-0.6,0.6-0.9
			c0.1-0.2,0.3-0.4,0.4-0.7c0.1-0.2,3.6-6.2,4.1-7.2C85.7,51.8,86.4,52.1,85.7,53.7 M74.3,55.4c-0.1,0.1-0.1,0.2-0.1,0.2
			c0.1-0.1,0.7-1.2,1.3-2.3c0.4-0.7,0.1-2.1,0-2.6c0-0.3-0.6-0.9-0.9-1c-0.3,0.1-0.3-0.1-0.8,0.5c-0.1,0.4-1,1.9-1.2,2.3
			c-0.1,0.3-2,3.9-2.6,5.6c-0.3,0.8-0.4,1.5-0.6,2.3c-0.1,0.5,0,0.5,0.2,1.1c0.2,0.1,0.3-0.1,0.4-0.2C71.6,59.9,73.5,56.7,74.3,55.4
			z"/>
		<path class="st3" d="M85.7,53.7c-0.5,0.8-3.5,7.2-4.2,8.2c0,0.1-0.1,0.1-0.1,0.2c-0.7,1.5-0.9,1.7-1.9,2.9c-0.3,0.4-1,0.7-1.5,1.1
			c-0.2,0-0.5,0.1-0.8,0.1c-0.3,0-0.5,0-0.9,0.1c-0.4-0.3-0.9-0.7-1.3-1c-0.1-0.1-0.2-0.2-0.3-0.3c-0.6-1-1-2-1-3.2
			c0-0.1,0-0.1,0-0.2c0.3-1,0.4-2.1,0.9-3c0.1-0.3,0.2-0.5,0.3-0.8c0.3-0.8,0.6-1.6,0.9-2.5c0.2-0.6,0.5-1.1,0.8-1.7
			c0.2-0.4,0.3-0.7,0.4-1.1c-0.1-0.2-0.2,0-0.3,0c-0.7,1.2-1.5,2.4-2.1,3.7c-0.4,0.9-0.9,1.7-1.3,2.6c-0.1,0.3-0.4,0.6-0.5,0.9
			c-0.1,0.2-1.6,2.5-2.2,3.3c-0.1,0.1-0.3,0.3-0.5,0.3c-0.2,0.1-0.5,0.1-0.7,0.1c-0.3,0-1.9-0.1-2.6-1.4c-0.1,0-0.8-1.6-0.7-3.1
			c0.2-1.5,0.7-2.9,1.3-4.2c0.3-0.5,0.6-1,0.9-1.5c0.2-0.3,0.4-0.6,0.6-0.9c0.2-0.3,0.4-0.6,0.7-0.9c0.3-0.4,0.6-0.8,0.9-1.2
			c1.1-1.2,1.7-1.3,1.7-1.4c0.8-0.5,2-0.5,2.8-0.3c1.2,0.5,1.5,2,1.7,2.7c0.3-0.4,0.8-1.1,1.1-1.6c0.2-0.3,0.6-0.8,1-1.1
			c0.5-0.4,1.7,0.7,2,1.2c0.3,0.4,0.3,0.8,0.2,1.3c-0.1,0.2-0.4,1.1-0.7,1.9c-0.4,1.1-0.9,2.2-1.3,3.3c-0.5,1.2-1,2.5-1.4,3.7
			c-0.1,0.3-0.2,0.7-0.4,1c-0.3,0.8-0.4,1.6-0.5,2.3c0,0.3,0.3,0.9,0.3,0.9s0.4,1.3,3.2-3c0.1-0.3,0.4-0.6,0.6-0.9
			c0.1-0.2,0.3-0.4,0.4-0.7c0.1-0.2,3.6-6.2,4.1-7.2C85.7,51.8,86.4,52.1,85.7,53.7z M74.3,55.4c-0.1,0.1-0.1,0.2-0.1,0.2
			c0.1-0.1,0.7-1.2,1.3-2.3c0.4-0.7,0.1-2.1,0-2.6c0-0.3-0.6-0.9-0.9-1c-0.3,0.1-0.3-0.1-0.8,0.5c-0.1,0.4-1,1.9-1.2,2.3
			c-0.1,0.3-2,3.9-2.6,5.6c-0.3,0.8-0.4,1.5-0.6,2.3c-0.1,0.5,0,0.5,0.2,1.1c0.2,0.1,0.3-0.1,0.4-0.2C71.6,59.9,73.5,56.7,74.3,55.4
			z"/>
		<path class="st2" d="M101.2,51.4c0,0.1-0.1,0.3-0.1,0.4c-0.1,0.5-0.2,0.9-0.4,1.4c-0.2,0.4-4.6,9.1-5,10c-0.5,1.2-1.1,2.4-1.8,3.6
			c-0.2,0.4-0.4,0.9-0.6,1.3c-0.3,0.7-0.8,1.1-1.4,1.5C91,70.1,87,70.2,88,63.3c0.1-0.4,0.2-0.9,0.3-1.3c0.1-0.2,0.1-0.5,0.2-0.7
			c0.7-1.7,1.2-3.4,1.9-5.1c0.9-2.2,2.1-4.3,3-6.5c0.3-0.6,0.5-1.2,0.7-1.9c0.1-0.4,0.1-0.9,0.1-1.3c-0.3-0.2-0.5,0-0.6,0.1
			c-0.3,0.3-0.5,0.7-0.8,1c-0.5,0.7-0.9,1.3-1.3,1.9c-0.5,0.8-1.1,1.6-1.5,2.5c-0.4,0.9-0.8,1.9-1.3,2.7c-0.1,0.1-0.1,0.3-0.2,0.4
			c-0.1,0.7-0.5,1.2-0.8,1.8c-0.1,0.3-0.3,0.6-0.5,0.9c-0.3,0.7-1.6,3.1-1.7,3.2c-0.5,0.5-1,1.1-1.7,1.2c-0.4,0-2-0.2-1.7-2.7
			c0.1-0.6,0.2-1.2,0.3-1.7c0.2-1.2,1.7-6.9,2.5-8.5c0.5-1.4,1.5-0.8,1.5-0.8s1.6,1,1.3,2.5c0,0.8-0.8,3.3-0.8,3.3l-0.4,1.3
			c0,0,2.7-4.6,3.4-6.2c1.5-2.8,3.2-4.5,3.4-4.8c1.7-1.7,4,0.6,3.7,2.6c-0.2,1.5-1,4.2-1.5,5.5c-0.9,2.4-1.6,4.2-2.5,6.6
			c-1,3.5-1.3,6.1-1.3,7.3c0,0.1,0,0.3,0.1,0.4c0.1,0,0.2,0,0.2-0.1c0.3-0.3,1.9-3.2,2.4-4.1c0.5-1.2,5.2-10.6,5.9-11.6
			c0.1-0.1,0.2-0.2,0.3-0.3h0.1C101,51,101.1,51.2,101.2,51.4"/>
		<path class="st3" d="M101.2,51.4c0,0.1-0.1,0.3-0.1,0.4c-0.1,0.5-0.2,0.9-0.4,1.4c-0.2,0.4-4.6,9.1-5,10c-0.5,1.2-1.1,2.4-1.8,3.6
			c-0.2,0.4-0.4,0.9-0.6,1.3c-0.3,0.7-0.8,1.1-1.4,1.5C91,70.1,87,70.2,88,63.3c0.1-0.4,0.2-0.9,0.3-1.3c0.1-0.2,0.1-0.5,0.2-0.7
			c0.7-1.7,1.2-3.4,1.9-5.1c0.9-2.2,2.1-4.3,3-6.5c0.3-0.6,0.5-1.2,0.7-1.9c0.1-0.4,0.1-0.9,0.1-1.3c-0.3-0.2-0.5,0-0.6,0.1
			c-0.3,0.3-0.5,0.7-0.8,1c-0.5,0.7-0.9,1.3-1.3,1.9c-0.5,0.8-1.1,1.6-1.5,2.5c-0.4,0.9-0.8,1.9-1.3,2.7c-0.1,0.1-0.1,0.3-0.2,0.4
			c-0.1,0.7-0.5,1.2-0.8,1.8c-0.1,0.3-0.3,0.6-0.5,0.9c-0.3,0.7-1.6,3.1-1.7,3.2c-0.5,0.5-1,1.1-1.7,1.2c-0.4,0-2-0.2-1.7-2.7
			c0.1-0.6,0.2-1.2,0.3-1.7c0.2-1.2,1.7-6.9,2.5-8.5c0.5-1.4,1.5-0.8,1.5-0.8s1.6,1,1.3,2.5c0,0.8-0.8,3.3-0.8,3.3l-0.4,1.3
			c0,0,2.7-4.6,3.4-6.2c1.5-2.8,3.2-4.5,3.4-4.8c1.7-1.7,4,0.6,3.7,2.6c-0.2,1.5-1,4.2-1.5,5.5c-0.9,2.4-1.6,4.2-2.5,6.6
			c-1,3.5-1.3,6.1-1.3,7.3c0,0.1,0,0.3,0.1,0.4c0.1,0,0.2,0,0.2-0.1c0.3-0.3,1.9-3.2,2.4-4.1c0.5-1.2,5.2-10.6,5.9-11.6
			c0.1-0.1,0.2-0.2,0.3-0.3h0.1C101,51,101.1,51.2,101.2,51.4z"/>
		<path class="st2" d="M116.2,53.7c-0.5,0.8-3.5,7.2-4.2,8.2c0,0.1-0.1,0.1-0.1,0.2c-0.7,1.5-0.9,1.7-1.9,2.9
			c-0.3,0.4-1,0.7-1.5,1.1c-0.2,0-0.5,0.1-0.8,0.1c-0.3,0-0.5,0-0.9,0.1c-0.4-0.3-0.9-0.7-1.3-1c-0.1-0.1-0.2-0.2-0.3-0.3
			c-0.6-1-1-2-1-3.2c0-0.1,0-0.1,0-0.2c0.3-1,0.4-2.1,0.9-3c0.1-0.3,0.2-0.5,0.3-0.8c0.3-0.8,0.6-1.6,0.9-2.5
			c0.2-0.6,0.5-1.1,0.8-1.7c0.2-0.4,0.3-0.7,0.4-1.1c-0.1-0.2-0.2,0-0.3,0c-0.7,1.2-1.5,2.4-2.1,3.7c-0.4,0.9-0.9,1.7-1.3,2.6
			c-0.1,0.3-0.4,0.6-0.5,0.9c-0.1,0.2-1.6,2.5-2.2,3.3c-0.1,0.1-0.3,0.3-0.5,0.3c-0.2,0.1-0.5,0.1-0.7,0.1c-0.3,0-1.9-0.1-2.6-1.4
			c-0.1,0-0.8-1.6-0.7-3.1c0.2-1.5,0.7-2.9,1.3-4.2c0.3-0.5,0.6-1,0.9-1.5c0.2-0.3,0.4-0.6,0.6-0.9c0.2-0.3,0.4-0.6,0.7-0.9
			c0.3-0.4,0.6-0.8,0.9-1.2c1.1-1.2,1.7-1.3,1.7-1.4c0.8-0.5,2-0.5,2.8-0.3c1.2,0.5,1.5,2,1.7,2.7c0.3-0.4,0.8-1.1,1.1-1.6
			c0.2-0.3,0.6-0.8,1-1.1c0.5-0.4,1.7,0.7,2,1.2c0.3,0.4,0.3,0.8,0.2,1.3c-0.1,0.2-0.4,1.1-0.7,1.9c-0.4,1.1-0.9,2.2-1.3,3.3
			c-0.5,1.2-1,2.5-1.4,3.7c-0.1,0.3-0.2,0.7-0.4,1c-0.3,0.8-0.4,1.6-0.5,2.3c0,0.3,0.3,0.9,0.3,0.9s0.4,1.3,3.2-3
			c0.1-0.3,0.4-0.6,0.6-0.9c0.1-0.2,0.3-0.4,0.4-0.7c0.1-0.2,3.6-6.2,4.1-7.2C116.3,51.8,117,52.1,116.2,53.7 M104.9,55.4
			c-0.1,0.1-0.1,0.2-0.1,0.2c0.1-0.1,0.7-1.2,1.3-2.3c0.4-0.7,0.1-2.1,0-2.6c0-0.3-0.6-0.9-0.9-1c-0.3,0.1-0.3-0.1-0.8,0.5
			c-0.1,0.4-1,1.9-1.2,2.3c-0.1,0.3-2,3.9-2.6,5.6c-0.3,0.8-0.4,1.5-0.6,2.3c-0.1,0.5,0,0.5,0.2,1.1c0.2,0.1,0.3-0.1,0.4-0.2
			C102.2,59.9,104.1,56.7,104.9,55.4z"/>
		<path class="st3" d="M116.2,53.7c-0.5,0.8-3.5,7.2-4.2,8.2c0,0.1-0.1,0.1-0.1,0.2c-0.7,1.5-0.9,1.7-1.9,2.9
			c-0.3,0.4-1,0.7-1.5,1.1c-0.2,0-0.5,0.1-0.8,0.1c-0.3,0-0.5,0-0.9,0.1c-0.4-0.3-0.9-0.7-1.3-1c-0.1-0.1-0.2-0.2-0.3-0.3
			c-0.6-1-1-2-1-3.2c0-0.1,0-0.1,0-0.2c0.3-1,0.4-2.1,0.9-3c0.1-0.3,0.2-0.5,0.3-0.8c0.3-0.8,0.6-1.6,0.9-2.5
			c0.2-0.6,0.5-1.1,0.8-1.7c0.2-0.4,0.3-0.7,0.4-1.1c-0.1-0.2-0.2,0-0.3,0c-0.7,1.2-1.5,2.4-2.1,3.7c-0.4,0.9-0.9,1.7-1.3,2.6
			c-0.1,0.3-0.4,0.6-0.5,0.9c-0.1,0.2-1.6,2.5-2.2,3.3c-0.1,0.1-0.3,0.3-0.5,0.3c-0.2,0.1-0.5,0.1-0.7,0.1c-0.3,0-1.9-0.1-2.6-1.4
			c-0.1,0-0.8-1.6-0.7-3.1c0.2-1.5,0.7-2.9,1.3-4.2c0.3-0.5,0.6-1,0.9-1.5c0.2-0.3,0.4-0.6,0.6-0.9c0.2-0.3,0.4-0.6,0.7-0.9
			c0.3-0.4,0.6-0.8,0.9-1.2c1.1-1.2,1.7-1.3,1.7-1.4c0.8-0.5,2-0.5,2.8-0.3c1.2,0.5,1.5,2,1.7,2.7c0.3-0.4,0.8-1.1,1.1-1.6
			c0.2-0.3,0.6-0.8,1-1.1c0.5-0.4,1.7,0.7,2,1.2c0.3,0.4,0.3,0.8,0.2,1.3c-0.1,0.2-0.4,1.1-0.7,1.9c-0.4,1.1-0.9,2.2-1.3,3.3
			c-0.5,1.2-1,2.5-1.4,3.7c-0.1,0.3-0.2,0.7-0.4,1c-0.3,0.8-0.4,1.6-0.5,2.3c0,0.3,0.3,0.9,0.3,0.9s0.4,1.3,3.2-3
			c0.1-0.3,0.4-0.6,0.6-0.9c0.1-0.2,0.3-0.4,0.4-0.7c0.1-0.2,3.6-6.2,4.1-7.2C116.3,51.8,117,52.1,116.2,53.7z M104.9,55.4
			c-0.1,0.1-0.1,0.2-0.1,0.2c0.1-0.1,0.7-1.2,1.3-2.3c0.4-0.7,0.1-2.1,0-2.6c0-0.3-0.6-0.9-0.9-1c-0.3,0.1-0.3-0.1-0.8,0.5
			c-0.1,0.4-1,1.9-1.2,2.3c-0.1,0.3-2,3.9-2.6,5.6c-0.3,0.8-0.4,1.5-0.6,2.3c-0.1,0.5,0,0.5,0.2,1.1c0.2,0.1,0.3-0.1,0.4-0.2
			C102.2,59.9,104.1,56.7,104.9,55.4z"/>
		<path class="st2" d="M66.3,46.1c0-0.8-0.6-1.4-1.4-1.4c-0.8,0-1.4,0.6-1.4,1.4c0,0.8,0.6,1.4,1.4,1.4
			C65.6,47.5,66.3,46.9,66.3,46.1"/>
		<circle class="st3" cx="64.9" cy="46.1" r="1.4"/>
		<path class="st0" d="M3.3,80.3c0-0.7,0.1-1.4,0.3-2c0.6-2,1.7-3.7,2.8-5.4c1.4-2,3-3.7,4.8-5.4c0.9-0.9,1.9-1.8,2.9-2.7
			c1.1-0.9,2.2-1.7,3.3-2.5c1.2-0.9,2.5-1.7,3.7-2.5l2-1.3l0.1,0.1c-0.2,0.4-0.4,0.8-0.6,1.2c-0.8,1.7-1.8,3.3-2.9,4.8
			c-1.3,1.7-2.6,3.4-4.1,4.9c-0.7,0.8-1.5,1.6-2.1,2.4c-0.2,0.3-0.5,0.5-0.8,0.8c-0.5,0.4-0.9,0.9-1.4,1.4c-1.1,1.3-2.4,2.5-3.6,3.6
			c-1,0.9-2,1.9-3.2,2.6c-0.3,0.1-0.6,0.3-0.9,0.4c0,0-0.1,0-0.1,0C3.3,80.6,3.3,80.5,3.3,80.3z M63.5,46.1c0,0.8,0.6,1.4,1.4,1.4
			c0.8,0,1.4-0.6,1.4-1.4c0-0.8-0.6-1.4-1.4-1.4C64.1,44.8,63.5,45.4,63.5,46.1z M74.2,55.5c0,0,0-0.1,0.1-0.1
			C74.2,55.5,74.2,55.5,74.2,55.5z M69.7,61.3c-0.2-0.5-0.3-0.6-0.2-1.1c0.1-0.8,0.3-1.6,0.6-2.3c0.6-1.6,2.5-5.3,2.6-5.6
			c0.2-0.4,1.1-1.9,1.2-2.3c0.5-0.6,0.5-0.3,0.8-0.5c0.3,0.1,0.9,0.7,0.9,1c0.1,0.5,0.4,1.9,0,2.6c-0.6,0.9-1.1,1.8-1.3,2.1
			c0,0,0,0,0,0c-0.8,1.4-2.7,4.5-4.2,5.8C70,61.3,69.9,61.4,69.7,61.3C69.7,61.4,69.7,61.4,69.7,61.3z M104.8,55.5
			c0,0,0-0.1,0.1-0.1C104.8,55.5,104.8,55.5,104.8,55.5z M100.2,61.3c-0.2-0.5-0.3-0.6-0.2-1.1c0.1-0.8,0.3-1.6,0.6-2.3
			c0.6-1.6,2.5-5.3,2.6-5.6c0.2-0.4,1.1-1.9,1.2-2.3c0.5-0.6,0.5-0.3,0.8-0.5c0.3,0.1,0.9,0.7,0.9,1c0.1,0.5,0.4,1.9,0,2.6
			c-0.6,0.9-1.1,1.8-1.3,2.1c0,0,0,0,0,0c-0.8,1.4-2.7,4.5-4.2,5.8C100.6,61.3,100.5,61.4,100.2,61.3
			C100.3,61.4,100.3,61.4,100.2,61.3z M22.4,37.4c-2,0.6-3.5,1.8-4.8,3.3c-1.5,1.7-2.6,3.6-3.5,5.7c-0.3,0.7-0.6,1.5-0.6,2.4
			c0,0.8,0.7,1.3,1.3,1.5c0,0,0.2,0,0.2,0c0-0.1,0-0.2,0-0.3c-0.1-0.1-0.3-0.3-0.4-0.4c-0.4-0.1-0.4-0.4-0.4-0.8
			c0-0.9,0.4-1.8,0.8-2.6c0.5-1.1,1.2-2.2,1.9-3.1c0.9-1.4,2.1-2.5,3.5-3.4c1-0.7,2-1.2,3.2-1.4c1.5-0.4,2.8,0.2,3.4,1.6
			c0.3,0.7,0.5,1.4,0.5,2.1c0,1.2,0,2.3-0.1,3.4c-0.1,1.5-0.4,2.8-0.7,4.2c-0.6,2.5-1.5,4.9-2.6,7.3c-0.1,0.2-0.3,0.3-0.4,0.4
			c-2.4,1.5-4.8,3-7.1,4.6c-2.7,1.9-5.2,4-7.6,6.4c-2.2,2.1-4.2,4.4-5.8,7c-0.7,1.2-1.3,2.3-1.7,3.7c-0.4,1.5,0.1,2.5,1.2,3.2
			c0.8,0.5,1.7,0.8,2.6,0.8c1.5,0,2.9-0.5,4.2-1.2c1.3-0.7,2.4-1.7,3.5-2.6c3-2.6,5.6-5.6,8-8.9c1.9-2.6,3.5-5.3,4.7-8.2
			c0.9-2,1.7-4.1,2.3-6.2c0.1-0.3,0.2-0.5,0.5-0.6c0.8-0.4,2.1-1.1,3.3-1.8c-0.1,0.2-0.2,0.4-0.2,0.5c-0.7,1.4-1.1,2.9-1.5,4.3
			c-0.3,2,0.3,3,0.5,3.3c0.8,1.3,1.8,1.7,3,1.7c0.7-0.1,1.5-1.5,1.5-1.5c0.4-0.6,0.6-1.3,1-2c0.4-0.6,0.7-1.3,1-1.9
			c0-0.1,0.1-0.5,0.3-0.4c0,0.1,0,0.4-0.1,0.5c-0.3,1-0.6,2-0.8,3c-0.4,2-0.5,5.1,1.8,5.1c1.9-0.1,3.8-3.5,3.8-3.5s0.4-0.8,1.1-1.9
			c0.2,1.4,1.3,1.6,1.7,1.6c0.8-0.1,1.2-0.7,1.7-1.2c0.1-0.1,1.5-2.5,1.7-3.2c0.1-0.3,0.3-0.6,0.5-0.9c0.4-0.6,0.7-1.1,0.8-1.8
			c0-0.1,0.1-0.3,0.2-0.4c0.5-0.9,0.9-1.8,1.3-2.7c0.4-0.9,0.9-1.7,1.5-2.5c0.4-0.7,0.8-1.3,1.3-1.9c0.2-0.3,0.5-0.7,0.8-1
			c0.1-0.1,0.3-0.3,0.6-0.1c0,0.4,0,0.8-0.1,1.3c-0.2,0.7-0.4,1.3-0.7,1.9c-0.9,2.2-2,4.3-3,6.5c-0.7,1.7-1.3,3.4-1.9,5.1
			c-0.1,0.2-0.1,0.5-0.2,0.7l-0.3,1.3c-1,6.9,2.9,6.8,3.8,6.3c0.6-0.3,1.2-0.8,1.4-1.5c0.2-0.5,0.4-0.9,0.6-1.3
			c0.7-1.2,1.2-2.4,1.8-3.6c0.1-0.3,0.6-1.2,1.2-2.4c-0.1,0.2-0.1,0.5-0.2,0.7c-0.3,1-0.2,3.8,1.5,5.2c0.3,0.1,0.7,0.3,1,0.5
			c1.4,0.7,4-2.9,6.2-6.7c0.2,0.8,0.5,1.4,0.6,1.4c0.8,1.3,2.3,1.4,2.6,1.4c0.2,0,0.5-0.1,0.7-0.1c0.2-0.1,0.3-0.3,0.5-0.3
			c0.6-0.7,2.1-3.1,2.2-3.3c0.2-0.3,0.4-0.6,0.5-0.9c0.4-0.9,0.9-1.7,1.3-2.6c0.6-1.3,1.5-2.5,2.1-3.7c0-0.1,0.1-0.2,0.3,0
			c-0.1,0.3-0.3,0.7-0.4,1.1c-0.3,0.5-0.5,1.1-0.8,1.7c-0.3,0.8-0.6,1.6-0.9,2.5c-0.1,0.3-0.2,0.5-0.3,0.8c-0.5,0.9-0.7,2-0.9,3
			c0,0.1,0,0.1,0,0.2c0,1.2,0.4,2.3,1,3.2c0.1,0.1,0.2,0.3,0.3,0.3c0.4,0.3,0.9,0.7,1.3,1c0.3,0,0.6,0,0.9-0.1
			c0.3,0,0.5-0.1,0.8-0.1c0.5-0.3,1.2-0.7,1.5-1.1c0.9-1.1,1.1-1.4,1.9-2.9c0,0,0.1-0.1,0.1-0.2c0.1-0.2,0.4-0.6,0.6-1.1
			c0.2,1.4,1.3,1.5,1.7,1.5c0.8-0.1,1.2-0.7,1.7-1.2c0.1-0.1,1.5-2.5,1.7-3.2c0.1-0.3,0.3-0.6,0.5-0.9c0.4-0.6,0.7-1.1,0.8-1.8
			c0-0.1,0.1-0.3,0.2-0.4c0.5-0.9,0.9-1.8,1.3-2.7c0.4-0.9,0.9-1.7,1.5-2.5c0.4-0.7,0.8-1.3,1.3-1.9c0.2-0.3,0.5-0.7,0.8-1
			c0.1-0.1,0.3-0.3,0.6-0.1c0,0.4,0,0.8-0.1,1.3c-0.2,0.7-0.4,1.3-0.7,1.9c-0.9,2.2-2,4.3-3,6.5c-0.7,1.7-1.3,3.4-1.9,5.1
			c-0.1,0.2-0.1,0.5-0.2,0.7c-0.1,0.4-0.2,0.9-0.3,1.3c-1,6.9,2.9,6.8,3.8,6.3c0.6-0.3,1.2-0.8,1.4-1.5c0.2-0.5,0.4-0.9,0.6-1.3
			c0.7-1.2,1.2-2.4,1.8-3.6c0.1-0.3,0.7-1.4,1.3-2.7c0.2,0.8,0.5,1.5,0.6,1.5c0.8,1.3,2.3,1.4,2.6,1.4c0.2,0,0.5-0.1,0.7-0.1
			c0.2-0.1,0.3-0.3,0.5-0.3c0.6-0.7,2.1-3.1,2.2-3.3c0.2-0.3,0.4-0.6,0.5-0.9c0.4-0.9,0.9-1.7,1.3-2.6c0.6-1.3,1.5-2.5,2.1-3.7
			c0-0.1,0.1-0.2,0.3,0c-0.1,0.3-0.3,0.7-0.4,1.1c-0.3,0.5-0.5,1.1-0.8,1.7c-0.3,0.8-0.6,1.6-0.9,2.5c-0.1,0.3-0.2,0.5-0.3,0.8
			c-0.5,0.9-0.7,2-0.9,3c0,0.1,0,0.1,0,0.2c0,1.2,0.4,2.3,1,3.2c0.1,0.1,0.2,0.3,0.3,0.3c0.4,0.3,0.9,0.7,1.3,1c0.3,0,0.6,0,0.9-0.1
			c0.3,0,0.5-0.1,0.8-0.1c0.5-0.3,1.2-0.7,1.5-1.1c0.9-1.1,1.1-1.4,1.9-2.9c0,0,0.1-0.1,0.1-0.2c0.7-1.1,3.7-7.4,4.2-8.2
			c0.8-1.7,0-1.9-0.2-1.5c-0.5,1.1-4,7-4.1,7.2c-0.1,0.3-0.3,0.5-0.4,0.7c-0.2,0.3-0.5,0.6-0.6,0.9c-2.8,4.3-3.2,3-3.2,3
			s-0.3-0.6-0.3-0.9c0.1-0.8,0.2-1.6,0.5-2.3c0.1-0.3,0.3-0.7,0.4-1c0.4-1.2,0.8-2.5,1.4-3.7c0.5-1.1,0.9-2.2,1.3-3.3
			c0.3-0.7,0.6-1.7,0.7-1.9c0.1-0.5,0-0.9-0.2-1.3c-0.3-0.4-1.5-1.6-2-1.2c-0.4,0.3-0.8,0.7-1,1.1c-0.3,0.5-0.8,1.2-1.1,1.6
			c-0.1-0.7-0.5-2.2-1.7-2.7c-0.3-0.1-0.7-0.2-1.1-0.2c-0.6,0-1.2,0.1-1.7,0.4c-0.1,0.1-0.7,0.2-1.7,1.4c-0.3,0.4-0.6,0.8-0.9,1.2
			c-0.2,0.3-0.4,0.6-0.7,0.9c-0.2,0.3-0.4,0.5-0.6,0.9c-0.3,0.5-0.6,1-0.9,1.5c-0.5,1-0.9,2-1.1,3.1c-1.2,2.4-2.2,4.6-2.5,5.1
			c-0.4,0.9-2.1,3.8-2.4,4.1c0,0-0.1,0-0.2,0.1c0-0.1-0.1-0.3-0.1-0.4c0-1.2,0.3-3.8,1.3-7.3c0.9-2.4,1.6-4.2,2.5-6.6
			c0.5-1.3,1.3-4,1.5-5.5c0.2-1.5-1-3.2-2.4-3.2c-0.4,0-0.9,0.2-1.3,0.6c-0.3,0.3-2,2-3.4,4.8c-0.7,1.6-3.4,6.2-3.4,6.2l0.4-1.3
			c0,0,0.7-2.5,0.8-3.3c0.3-1.5-1.3-2.5-1.3-2.5s-0.9-0.6-1.5,0.8c-0.8,1.5-2.1,6.4-2.5,8.1c-0.6,1-1.1,1.9-1.1,1.9
			c-0.1,0.3-0.3,0.5-0.4,0.7c-0.2,0.3-0.5,0.6-0.6,0.9c-2.8,4.3-3.2,3-3.2,3s-0.3-0.6-0.3-0.9c0.1-0.8,0.2-1.6,0.5-2.3
			c0.1-0.3,0.3-0.7,0.4-1c0.4-1.2,0.8-2.5,1.4-3.7c0.5-1.1,0.9-2.2,1.3-3.3c0.3-0.7,0.6-1.7,0.7-1.9c0.1-0.5,0-0.9-0.2-1.3
			c-0.3-0.4-1.5-1.6-2-1.2c-0.4,0.3-0.8,0.7-1,1.1c-0.3,0.5-0.8,1.2-1.1,1.6c-0.1-0.7-0.5-2.2-1.7-2.7c-0.3-0.1-0.7-0.2-1.1-0.2
			c-0.6,0-1.2,0.1-1.7,0.4c-0.1,0.1-0.7,0.2-1.7,1.4c-0.3,0.4-0.6,0.8-0.9,1.2c-0.2,0.3-0.4,0.6-0.7,0.9c-0.2,0.3-0.4,0.5-0.6,0.9
			c-0.3,0.5-0.6,1-0.9,1.5c-0.7,1.3-1.2,2.7-1.3,4.2c0,0.1,0,0.1,0,0.2c-1.8,2.9-3.8,5.7-5.1,6.1c0,0-0.1,0-0.2,0
			c0-0.1-0.1-0.2-0.1-0.4c0-0.5,0-1,0.1-1.5c0.2-1.2,0.6-2.4,1-3.5c0.5-1.3,0.9-2.5,1.4-3.8c0.5-1.5,1.1-2.9,1.4-4.5
			c0.1-0.5,0.2-1,0.3-1.5c0-1-0.7-1.7-1.6-1.8c0,0-0.1,0-0.1,0c-0.1,0-0.3,0-0.4,0c-0.5,0.5-0.7,1-0.9,1.6c-0.2,0.5-0.3,0.9-0.5,1.4
			c0,0,0,0,0,0.1c-0.7,1-5.3,10.4-5.9,11.6c-0.4,0.9-2.1,3.8-2.4,4.1c0,0-0.1,0-0.2,0.1c0-0.1-0.1-0.3-0.1-0.4
			c0-1.2,0.3-3.8,1.3-7.3c0.9-2.4,1.6-4.2,2.5-6.6c0.5-1.3,1.3-4,1.5-5.5c0.2-1.5-1-3.2-2.4-3.2c-0.4,0-0.9,0.2-1.3,0.6
			c-0.3,0.3-2,2-3.4,4.8c-0.7,1.6-3.4,6.2-3.4,6.2l0.4-1.3c0,0,0.7-2.5,0.8-3.3c0.3-1.5-1.3-2.5-1.3-2.5S46.5,48,46,49.4
			c-0.8,1.5-2.3,6.9-2.5,8.3c-1.7,2.6-3.4,5.2-3.4,5.2s-1.4,1.5-0.9-0.5c0.1-0.4,0.9-3.3,1.1-3.7c0.6-1.7,1.1-3.4,1.4-5.1
			c0.4-0.9,1.1-3.1,1-4c0-0.5-0.2-0.9-0.8-1.1c-0.1,0-0.2,0-0.3-0.1c-0.1,0-0.1,0-0.2,0c-0.6,0-0.9,0.5-0.9,0.5s-1.4,2.3-1.7,2.9
			c-0.5,1.4-1.1,2.4-1.6,3.4c-0.7,1.5-1.5,2.5-2.3,3.8c-0.3,0.5-0.7,1.1-1.1,1.5c-0.1,0.1-0.2,0.2-0.4,0.1c-0.3-0.4-0.4-0.8-0.3-1.3
			c0.1-0.3,0.1-0.6,0.1-0.9c0.2-0.8,0.3-1.5,0.5-2.3c0.4-0.9,0.7-1.9,0.9-2.9c0.1-0.5,0.3-0.9,0.5-1.4c0.5-1.7-0.9-2.9-1.6-2.1
			c-0.5,0.8-0.9,1.6-1.3,2.5c-0.6,0.3-1.1,0.6-2.4,1.3l-1.5,0.8c0.1-0.5,0.2-0.9,0.3-1.3c0.5-1.9,0.7-3.8,0.9-5.7
			c0.1-1.7,0.1-3.4-0.4-5c-0.4-1.6-1.1-3.1-2.5-4.2c-0.9-0.7-1.9-1.1-2.9-1.1C23.4,37.2,22.9,37.3,22.4,37.4z"/>
		<path class="st0" d="M69.1,10.4L69.1,10.4c-2.9,0-4.1,1.9-4.1,1.9l1.4,18.8l2.4,0.1l1.5-0.2l0.7-0.1l2.3-19
			c-0.2-0.4-0.9-1.5-4-1.6C69.3,10.4,69.2,10.4,69.1,10.4"/>
		<path class="st0" d="M63.4,13.5c0,0-0.7,3.6-2.3,3.7c-1.6,0.1-1.1,1.1-1.1,1.1l3.4,9l3.1,3.8c-1.2-4.4-2.2-16.2-2.3-17.2
			c-0.1-0.5-0.2-0.7-0.3-0.7C63.6,13.2,63.4,13.5,63.4,13.5z"/>
		<path class="st0" d="M74.2,15.6C74,16.2,72.1,26,71.1,30.9l2.7-3.4l3.9-7c0,0,0.7-1-0.9-1.2c-1.6-0.3-1.7-4-1.7-4
			s-0.2-0.4-0.4-0.4C74.5,14.9,74.3,15.1,74.2,15.6z"/>
		<path class="st4" d="M67.8,15.2h0.1v0L67.8,15.2l0,0.1h0.1v0h-0.1v0.1h0.1v0h-0.1V15.2z M68,15.2L68,15.2l0.1,0.2l0.1-0.2h0
			l-0.1,0.3h0L68,15.2z M68.2,15.2h0.1v0L68.2,15.2l0,0.1h0.1v0h-0.1v0.1h0.1v0h-0.1V15.2z M68.4,15.5v-0.3h0l0.2,0.2v-0.2h0v0.3h0
			l-0.2-0.2L68.4,15.5L68.4,15.5z M68.7,15.2L68.7,15.2l0.1,0v0H68.7l0.1,0.2h0L68.7,15.2L68.7,15.2z M69,15.2
			C69,15.2,69,15.2,69,15.2c0.1,0.1,0.1,0.1,0.1,0.1c0,0,0,0.1,0,0.1c0,0-0.1,0-0.1,0c0,0-0.1,0-0.1,0c0,0,0-0.1,0-0.1
			c0,0,0,0,0-0.1C68.9,15.2,68.9,15.2,69,15.2C68.9,15.2,68.9,15.2,69,15.2z M69,15.2C68.9,15.2,68.9,15.2,69,15.2
			C68.9,15.2,68.9,15.3,69,15.2c-0.1,0.1-0.1,0.1-0.1,0.1c0,0,0,0.1,0,0.1c0,0,0,0,0.1,0c0,0,0,0,0.1,0c0,0,0,0,0,0c0,0,0,0,0-0.1
			C69.1,15.3,69.1,15.3,69,15.2C69,15.3,69,15.2,69,15.2C69,15.2,69,15.2,69,15.2z M69.1,15.4L69.1,15.4
			C69.2,15.4,69.2,15.4,69.1,15.4c0.1,0,0.1,0,0.1,0c0,0,0,0,0,0c0,0,0,0,0,0c0,0,0,0,0,0C69.2,15.4,69.2,15.3,69.1,15.4
			c0-0.1,0-0.1,0-0.1c0,0,0,0,0,0c0,0,0,0,0,0c0,0,0,0,0,0c0,0,0,0,0,0c0,0,0,0,0,0c0,0,0,0,0,0l0,0c0,0,0,0,0,0c0,0,0,0,0,0
			c0,0,0,0,0,0c0,0,0,0,0,0c0,0,0,0,0,0c0,0,0,0,0,0C69.2,15.3,69.2,15.3,69.1,15.4c0.1-0.1,0.1-0.1,0.1-0.1c0,0,0,0,0,0
			c0,0,0,0,0,0C69.2,15.5,69.2,15.5,69.1,15.4C69.2,15.5,69.2,15.5,69.1,15.4C69.1,15.4,69.1,15.4,69.1,15.4z M70,15.2L70,15.2
			C70,15.2,69.9,15.2,70,15.2c-0.1,0-0.1,0-0.1,0c0,0,0,0-0.1,0c0,0,0,0,0,0c0,0,0,0,0,0.1c0,0,0,0.1,0,0.1c0,0,0,0,0.1,0
			c0,0,0.1,0,0.1,0l0,0c0,0,0,0,0,0c0,0,0,0-0.1,0c0,0-0.1,0-0.1,0c0,0,0-0.1,0-0.1c0,0,0-0.1,0-0.1c0,0,0.1,0,0.1,0
			C69.9,15.2,69.9,15.2,70,15.2C70,15.2,70,15.2,70,15.2z M70.2,15.2C70.2,15.2,70.2,15.2,70.2,15.2c0.1,0.1,0.1,0.1,0.1,0.1
			c0,0,0,0.1,0,0.1c0,0-0.1,0-0.1,0c0,0-0.1,0-0.1,0c0,0,0-0.1,0-0.1c0,0,0,0,0-0.1C70.1,15.2,70.1,15.2,70.2,15.2
			C70.1,15.2,70.1,15.2,70.2,15.2z M70.2,15.2C70.1,15.2,70.1,15.2,70.2,15.2C70.1,15.2,70.1,15.3,70.2,15.2
			c-0.1,0.1-0.1,0.1-0.1,0.1c0,0,0,0.1,0,0.1c0,0,0,0,0.1,0c0,0,0,0,0.1,0c0,0,0,0,0,0c0,0,0,0,0-0.1C70.3,15.3,70.3,15.3,70.2,15.2
			C70.2,15.3,70.2,15.2,70.2,15.2C70.2,15.2,70.2,15.2,70.2,15.2z M70.3,15.5v-0.3h0l0.2,0.2v-0.2h0v0.3h0l-0.2-0.2L70.3,15.5
			L70.3,15.5z M70.6,15.2L70.6,15.2l0.1,0.2l0.1-0.2h0l-0.1,0.3h0L70.6,15.2z M70.9,15.2H71v0L70.9,15.2l0,0.1H71v0h-0.1v0.1H71v0
			h-0.1V15.2z M71.1,15.5v-0.3h0l0.2,0.2v-0.2h0v0.3h0l-0.2-0.2L71.1,15.5L71.1,15.5z M71.6,15.2L71.6,15.2
			C71.5,15.2,71.5,15.2,71.6,15.2c-0.1,0-0.1,0-0.1,0c0,0,0,0-0.1,0c0,0,0,0,0,0c0,0,0,0,0,0.1c0,0,0,0.1,0,0.1c0,0,0,0,0.1,0
			c0,0,0.1,0,0.1,0l0,0c0,0,0,0,0,0c0,0,0,0-0.1,0c0,0-0.1,0-0.1,0c0,0,0-0.1,0-0.1c0,0,0-0.1,0-0.1c0,0,0.1,0,0.1,0
			C71.5,15.2,71.5,15.2,71.6,15.2C71.5,15.2,71.6,15.2,71.6,15.2z M71.6,15.2L71.6,15.2l0,0.3h0V15.2z M71.8,15.2
			C71.9,15.2,71.9,15.2,71.8,15.2c0.1,0.1,0.1,0.1,0.1,0.1c0,0,0,0.1,0,0.1c0,0-0.1,0-0.1,0c0,0-0.1,0-0.1,0c0,0,0-0.1,0-0.1
			c0,0,0,0,0-0.1C71.7,15.2,71.7,15.2,71.8,15.2C71.8,15.2,71.8,15.2,71.8,15.2z M71.8,15.2C71.8,15.2,71.8,15.2,71.8,15.2
			C71.8,15.2,71.7,15.3,71.8,15.2c-0.1,0.1-0.1,0.1-0.1,0.1c0,0,0,0.1,0,0.1c0,0,0,0,0.1,0c0,0,0,0,0.1,0c0,0,0,0,0,0c0,0,0,0,0-0.1
			C71.9,15.3,71.9,15.3,71.8,15.2C71.9,15.3,71.9,15.2,71.8,15.2C71.9,15.2,71.8,15.2,71.8,15.2z M72,15.5v-0.3h0l0.2,0.2v-0.2h0
			v0.3h0L72,15.3L72,15.5L72,15.5z M72.3,15.2h0.1v0L72.3,15.2l0,0.1h0.1v0h-0.1v0.1h0.1v0h-0.1V15.2z M72.4,15.4L72.4,15.4
			C72.5,15.4,72.5,15.4,72.4,15.4c0.1,0,0.1,0,0.1,0c0,0,0,0,0,0c0,0,0,0,0,0c0,0,0,0,0,0C72.6,15.4,72.5,15.3,72.4,15.4
			c0-0.1,0-0.1,0-0.1c0,0,0,0,0,0c0,0,0,0,0,0c0,0,0,0,0,0c0,0,0,0,0,0c0,0,0,0,0,0c0,0,0,0,0,0l0,0c0,0,0,0,0,0c0,0,0,0,0,0
			c0,0,0,0,0,0c0,0,0,0,0,0c0,0,0,0,0,0c0,0,0,0,0,0C72.5,15.3,72.5,15.3,72.4,15.4c0.1-0.1,0.1-0.1,0.1-0.1c0,0,0,0,0,0
			c0,0,0,0,0,0C72.6,15.5,72.5,15.5,72.4,15.4C72.5,15.5,72.5,15.5,72.4,15.4C72.5,15.4,72.5,15.4,72.4,15.4z M69.4,15.2L69.4,15.2
			l0.1,0.1l0.1-0.1h0l-0.1,0.1v0.1h0v-0.1L69.4,15.2z"/>
		<path class="st4" d="M69.8,14.5l-0.2,0.1c0,0-0.1-0.1-0.1-0.1c0,0-0.1,0-0.2,0c-0.1,0-0.2,0-0.3,0.1c-0.1,0-0.1,0.1-0.1,0.2
			c0,0.1,0,0.1,0.1,0.2c0.1,0,0.1,0.1,0.3,0.1c0.1,0,0.2,0,0.3-0.1l0.2,0.1c-0.1,0.1-0.3,0.2-0.5,0.2c-0.2,0-0.4,0-0.5-0.1
			c-0.1-0.1-0.2-0.2-0.2-0.3c0-0.1,0-0.1,0.1-0.2c0.1-0.1,0.1-0.1,0.2-0.1c0.1,0,0.2-0.1,0.3-0.1c0.1,0,0.2,0,0.3,0
			C69.7,14.4,69.7,14.5,69.8,14.5 M70.3,14.7h-0.5c0,0,0,0.1,0.1,0.1c0,0,0.1,0,0.1,0c0.1,0,0.1,0,0.2-0.1l0.1,0.1
			c0,0-0.1,0.1-0.1,0.1c0,0-0.1,0-0.2,0c-0.1,0-0.2,0-0.2-0.1c-0.1-0.1-0.1-0.1-0.1-0.2c0-0.1,0-0.2,0.1-0.2
			c0.1-0.1,0.1-0.1,0.2-0.1c0.1,0,0.2,0,0.2,0.1C70.3,14.5,70.3,14.6,70.3,14.7L70.3,14.7z M70.2,14.6
			C70.1,14.6,70.1,14.6,70.2,14.6c-0.1-0.1-0.1-0.1-0.2-0.1c0,0-0.1,0-0.1,0c0,0,0,0-0.1,0.1H70.2z M70.5,14.4h0.2v0.1
			c0,0,0.1-0.1,0.1-0.1c0,0,0.1,0,0.1,0c0.1,0,0.1,0,0.2,0.1c0,0,0.1,0.1,0.1,0.2V15h-0.2v-0.3c0-0.1,0-0.1,0-0.2c0,0,0,0,0-0.1
			c0,0,0,0-0.1,0c0,0-0.1,0-0.1,0c0,0,0,0.1,0,0.1c0,0,0,0.1,0,0.1V15h-0.2V14.4z M71.2,14.1h0.2v0.2h0.1v0.1h-0.1V15h-0.2v-0.5
			h-0.1v-0.1h0.1V14.1z M71.5,14.4h0.1v0.1c0,0,0-0.1,0.1-0.1c0,0,0.1,0,0.1,0c0,0,0,0,0.1,0l-0.1,0.1c0,0,0,0,0,0c0,0,0,0-0.1,0
			c0,0,0,0.1,0,0.2l0,0V15h-0.2V14.4z M72.3,14.4c0.1,0,0.1,0,0.2,0c0.1,0,0.1,0.1,0.1,0.1c0,0.1,0,0.1,0,0.2c0,0.1,0,0.1,0,0.2
			c0,0.1-0.1,0.1-0.1,0.1c-0.1,0-0.1,0-0.2,0c-0.1,0-0.2,0-0.2-0.1c-0.1-0.1-0.1-0.1-0.1-0.2c0-0.1,0-0.2,0.1-0.3
			C72.1,14.4,72.2,14.4,72.3,14.4z M72.3,14.5c-0.1,0-0.1,0-0.1,0.1c0,0-0.1,0.1-0.1,0.1c0,0.1,0,0.1,0,0.1c0,0,0.1,0.1,0.1,0.1
			c0.1,0,0.1,0,0.1-0.1c0,0,0.1-0.1,0.1-0.1c0-0.1,0-0.1-0.1-0.1C72.4,14.5,72.3,14.5,72.3,14.5z"/>
		<path class="st4" d="M66.6,15c0-0.2,0.1-0.3,0.2-0.4c-0.1-0.1-0.2-0.2-0.3-0.2l0-0.1c0.1,0,0.2,0.1,0.3,0.2
			c0.1-0.1,0.2-0.3,0.3-0.4h0.1c-0.1,0.1-0.2,0.3-0.3,0.5c0.1,0.1,0.2,0.3,0.3,0.5h-0.2c0-0.1-0.1-0.2-0.2-0.3
			c0,0.1-0.1,0.2-0.1,0.3H66.6z"/>
		<path class="st4" d="M67.4,15.1l0,0.3c0,0.1,0.1,0.1,0.1,0v-0.3c0-0.1,0-0.1,0.1-0.1c0.1,0,0.2,0,0.2-0.1c0.1-0.1,0.1-0.1,0.1-0.2
			c0-0.1,0-0.1,0-0.2c0,0-0.1-0.1-0.1-0.1c-0.1,0-0.1,0-0.2,0h0c0,0,0,0,0,0h-0.3c0,0-0.1,0-0.1,0.1c0,0,0,0.1,0.1,0.1h0.3h0
			c0.1,0,0.1,0,0.1,0c0,0,0.1,0.1,0.1,0.1c0,0,0,0.1,0,0.1c0,0-0.1,0-0.1,0c0,0,0,0,0,0C67.5,14.8,67.4,14.9,67.4,15.1"/>
		<path class="st4" d="M68.4,14.4c0.1,0,0.1,0,0.2,0c0.1,0,0.1,0.1,0.1,0.1c0,0.1,0,0.1,0,0.2c0,0.1,0,0.1,0,0.2
			c0,0.1-0.1,0.1-0.1,0.1c-0.1,0-0.1,0-0.2,0c-0.1,0-0.2,0-0.2-0.1c-0.1-0.1-0.1-0.1-0.1-0.2c0-0.1,0-0.2,0.1-0.3
			C68.2,14.4,68.3,14.4,68.4,14.4 M68.4,14.5c-0.1,0-0.1,0-0.1,0.1c0,0-0.1,0.1-0.1,0.1c0,0.1,0,0.1,0,0.1c0,0,0.1,0.1,0.1,0.1
			c0.1,0,0.1,0,0.1-0.1c0,0,0.1-0.1,0.1-0.1c0-0.1,0-0.1-0.1-0.1C68.5,14.5,68.5,14.5,68.4,14.5z"/>
		<path class="st4" d="M66.5,13.7C66.5,13.7,66.5,13.7,66.5,13.7l0,0.2c0,0,0,0,0,0c-0.2,0-0.4,0.1-0.5,0.3h0.2l-0.1,0.2H66
			c0.1,0.2,0.2,0.3,0.5,0.3c0,0,0,0,0,0l0,0.2c0,0,0,0,0,0c-0.4,0-0.7-0.3-0.7-0.7C65.8,14,66.1,13.7,66.5,13.7"/>
		<path class="st0" d="M62,70.7C62,70.7,62,70.7,62,70.7c0-0.1,0-0.1-0.1-0.1c0,0-0.1,0-0.2,0c0,0,0,0,0,0.1c0,0,0,0,0,0.1
			C61.9,70.6,62,70.7,62,70.7 M61.8,71.9C61.8,71.9,61.9,71.8,61.8,71.9c0.1-0.1,0.1-0.1,0.2-0.2c-0.1,0-0.1-0.1-0.1-0.1
			c0,0-0.1,0-0.1,0.1C61.7,71.7,61.7,71.8,61.8,71.9C61.8,71.8,61.8,71.8,61.8,71.9z M61.8,72.4c0.1-0.1,0.1-0.1,0.1-0.1
			c0,0,0-0.1-0.1-0.1C61.8,72.2,61.8,72.3,61.8,72.4z M61.7,69.9c0,0.1-0.1,0.1-0.1,0.2c0,0,0,0.1,0,0.2c0,0,0.1-0.1,0.1-0.1
			c0,0,0.1-0.1,0.1-0.1L61.7,69.9z M61.6,69.7c0,0.1,0,0.1,0.1,0.2C61.7,69.8,61.7,69.8,61.6,69.7C61.7,69.7,61.7,69.7,61.6,69.7z
			 M61.4,69.7C61.4,69.7,61.4,69.7,61.4,69.7c0.1-0.1,0.1-0.1,0-0.1c0,0,0,0-0.1,0c0,0,0,0-0.1,0C61.3,69.6,61.3,69.7,61.4,69.7
			c-0.1,0-0.1,0-0.1,0.1C61.3,69.8,61.3,69.8,61.4,69.7C61.4,69.8,61.4,69.8,61.4,69.7z M61.3,73c0-0.1,0-0.1,0.1-0.1
			c0,0,0-0.1,0.1-0.1c0,0,0-0.1,0-0.1c-0.1,0-0.1,0.1-0.1,0.1c0,0-0.1,0.1-0.1,0.1C61.1,72.9,61.1,73,61.3,73z M60.9,73.4
			C60.9,73.3,61,73.3,60.9,73.4c0.1-0.1,0.2-0.1,0.2-0.2c0,0,0-0.1,0-0.1c0,0,0-0.1,0-0.1c0,0-0.1,0-0.1,0c0,0-0.1,0-0.1,0
			c0,0-0.1,0-0.1,0c0,0-0.1,0-0.1-0.1c-0.1,0.1-0.1,0.2-0.2,0.2c0,0.1,0.1,0.1,0.1,0.1c0,0,0.1,0.1,0.1,0.1c0.1,0,0.1,0,0.1,0
			C60.8,73.4,60.8,73.4,60.9,73.4z M60.5,73.8C60.5,73.8,60.6,73.8,60.5,73.8C60.6,73.8,60.6,73.7,60.5,73.8
			C60.6,73.7,60.6,73.7,60.5,73.8C60.5,73.7,60.5,73.7,60.5,73.8C60.5,73.8,60.5,73.8,60.5,73.8z M59.3,75.2
			C59.3,75.2,59.3,75.2,59.3,75.2C59.3,75.2,59.3,75.1,59.3,75.2C59.3,75.1,59.3,75.1,59.3,75.2C59.3,75.2,59.2,75.2,59.3,75.2
			C59.2,75.2,59.2,75.2,59.3,75.2C59.3,75.2,59.3,75.2,59.3,75.2z M58.3,75.6C58.3,75.6,58.4,75.6,58.3,75.6c0.1,0,0.1,0,0.2,0
			c-0.1-0.1-0.2-0.1-0.2-0.1c-0.1,0-0.1-0.1-0.2-0.1c-0.1,0.1,0,0.1,0,0.2C58.2,75.5,58.2,75.5,58.3,75.6
			C58.3,75.5,58.3,75.6,58.3,75.6C58.3,75.6,58.3,75.6,58.3,75.6l-0.1,0C58.2,75.6,58.2,75.7,58.3,75.6
			C58.3,75.6,58.3,75.6,58.3,75.6L58.3,75.6L58.3,75.6z M57.6,77.1L57.6,77.1L57.6,77.1L57.6,77.1L57.6,77.1z M57.4,76.4
			c0.1,0,0.1,0,0.1,0c0,0,0.1-0.1,0.1-0.1C57.5,76.2,57.5,76.2,57.4,76.4C57.4,76.3,57.4,76.3,57.4,76.4z M57.2,77.3
			c0.1,0,0.1,0,0.2,0c0,0,0.1,0,0.1-0.1c0,0-0.1-0.1-0.2-0.2l0,0C57.3,77.2,57.3,77.2,57.2,77.3z M57.2,77.6
			C57.3,77.6,57.3,77.6,57.2,77.6c0-0.1-0.1-0.2-0.2-0.1C57,77.6,57.1,77.6,57.2,77.6C57.2,77.7,57.2,77.6,57.2,77.6z M57.3,76.7
			c0,0.1,0,0.1-0.1,0.1c0,0,0,0,0,0.1c0,0,0,0,0.1,0V76.7z M56.9,77.7C56.9,77.7,56.9,77.7,56.9,77.7C56.9,77.7,56.8,77.7,56.9,77.7
			L56.9,77.7C56.9,77.7,56.9,77.7,56.9,77.7z M56.6,77.1c0.1,0.1,0.1,0,0.2-0.1C56.7,77,56.6,77.1,56.6,77.1z M56.1,78.3
			c0.1-0.1,0.1-0.1,0.2-0.1c0,0,0.1-0.1,0.2-0.1c-0.1,0-0.1-0.1-0.2-0.1c-0.1,0-0.1-0.1-0.2-0.1C56,77.9,55.9,78,56,78
			c0,0,0.1,0,0.1,0.1c0,0,0.1,0,0.1,0.1c0,0,0,0.1,0,0.1C56.1,78.2,56.1,78.3,56.1,78.3z M56.3,78.6c0,0,0-0.1,0.1-0.1
			C56.3,78.4,56.3,78.5,56.3,78.6C56.3,78.6,56.3,78.6,56.3,78.6z M55.9,79.2c0-0.1,0.1-0.1,0.1-0.2c0,0-0.1-0.1-0.1-0.1
			c0,0-0.1-0.1-0.1-0.1c-0.1,0.1-0.1,0.2-0.1,0.3C55.8,79.2,55.8,79.2,55.9,79.2z M55.7,77.8c0,0,0,0.1,0,0.2c0-0.1,0.1-0.1,0.2-0.2
			C55.8,77.8,55.7,77.8,55.7,77.8z M56.2,77.4C56.2,77.4,56.2,77.4,56.2,77.4C56.1,77.4,56.1,77.4,56.2,77.4
			C56.1,77.4,56.1,77.4,56.2,77.4C56.2,77.4,56.2,77.4,56.2,77.4L56.2,77.4z M56.4,77.7L56.4,77.7L56.4,77.7z M55.5,78.4
			c0.1-0.1,0.1-0.1,0.1-0.1c0,0,0-0.1,0-0.3c-0.1,0-0.1,0.1-0.2,0.1c-0.1,0-0.1,0.1-0.2,0.1C55.4,78.3,55.5,78.4,55.5,78.4z
			 M55.5,79.5c0-0.1,0-0.1,0-0.2C55.4,79.4,55.5,79.4,55.5,79.5z M55.4,78.6C55.4,78.6,55.4,78.6,55.4,78.6
			C55.4,78.6,55.4,78.6,55.4,78.6C55.4,78.6,55.4,78.6,55.4,78.6L55.4,78.6z M55.4,79.6c0.1,0.1,0.1,0.1,0.2,0
			C55.5,79.6,55.4,79.6,55.4,79.6z M55.3,78.8c-0.1-0.1-0.1-0.1-0.2-0.1c0,0,0,0,0,0.1H55.3z M55.1,80.1
			C55.1,80.1,55.1,80.1,55.1,80.1L55.1,80.1L55.1,80.1L55.1,80.1z M55.1,79.7C55,79.6,55,79.6,55.1,79.7L55.1,79.7L55.1,79.7z
			 M55,79.2C55,79.3,55,79.3,55,79.2C55,79.3,55,79.3,55,79.2C55.1,79.3,55.1,79.2,55,79.2L55,79.2z M54.7,79.1
			c0.1,0.1,0.2,0,0.2-0.1c0,0-0.1,0-0.1-0.1C54.8,79,54.8,79.1,54.7,79.1C54.8,79.1,54.7,79.1,54.7,79.1z M54.8,80.1
			C54.8,80.1,54.8,80.1,54.8,80.1c0-0.1,0-0.1,0-0.1c0,0-0.1-0.1-0.1-0.1c0,0-0.1-0.1-0.1-0.1c-0.1,0-0.1,0-0.2,0.1
			c-0.1,0-0.1,0-0.2,0.1c0.1,0.1,0.1,0.1,0.2,0.1C54.6,80.1,54.7,80.1,54.8,80.1C54.8,80.2,54.8,80.2,54.8,80.1
			C54.8,80.1,54.8,80.1,54.8,80.1z M54.7,80.5c0,0.1-0.1,0.1-0.1,0.2c0,0,0.1,0,0.1,0V80.5z M54.6,80.8c0.1,0,0.1,0,0.2,0
			C54.7,80.7,54.6,80.7,54.6,80.8z M54.4,80.7c0.1,0,0.1-0.1,0.2-0.1c-0.1,0-0.1,0-0.1-0.1c0,0-0.1,0-0.1,0c0,0,0,0,0,0
			c0,0,0,0-0.1,0C54.1,80.7,54.2,80.7,54.4,80.7z M54.2,81.1L54.2,81.1L54.2,81.1z M54.3,80.4C54.3,80.3,54.2,80.3,54.3,80.4
			c-0.1-0.1-0.1,0-0.2,0H54.3z M55.3,82.8C55.2,82.9,55.2,82.9,55.3,82.8c-0.1,0.1-0.2,0.1-0.2,0.1C55.1,82.9,55.2,82.9,55.3,82.8
			C55.2,82.9,55.2,82.9,55.3,82.8z M55.7,83L55.7,83c0.1,0.1,0.1,0.1,0.1,0.1c0,0,0,0,0,0c0,0,0,0,0,0c0,0,0,0,0,0
			C55.8,83.1,55.8,83.1,55.7,83L55.7,83z M55.9,82.9L55.9,82.9L55.9,82.9L55.9,82.9z M56.3,83.1C56.3,83.1,56.3,83.1,56.3,83.1
			C56.3,83.2,56.3,83.2,56.3,83.1C56.3,83.2,56.4,83.2,56.3,83.1C56.4,83.2,56.4,83.1,56.3,83.1z M56.3,83.5
			C56.3,83.5,56.4,83.5,56.3,83.5C56.4,83.5,56.4,83.5,56.3,83.5C56.4,83.5,56.3,83.5,56.3,83.5L56.3,83.5z M57.5,83.9
			c-0.1,0-0.1,0.1-0.2,0.1c0,0,0,0.1,0,0.1c0,0,0.1,0,0.1,0c0,0,0.1,0,0.1,0C57.6,84,57.6,83.9,57.5,83.9z M53.9,81.9
			C54,82,54,82,54.1,82c0,0,0,0,0.1,0c0,0,0-0.1,0-0.1C54,81.8,53.9,81.8,53.9,81.9z M54.1,83C54.1,83,54.1,83,54.1,83L54.1,83
			C54.1,83,54.1,83,54.1,83L54.1,83z M53.9,81.4c0.1-0.1,0.1-0.1,0.1-0.2c0-0.1,0-0.1,0-0.2c0,0,0,0,0,0c0,0,0,0,0,0
			c0,0-0.1,0.1-0.1,0.1c0,0-0.1,0.1-0.1,0.1c-0.2,0-0.3,0-0.4,0.1v0.1c0.1,0.1,0.2,0.1,0.2,0.1c0,0,0.1,0,0.1,0c0,0,0.1,0,0.1,0
			L53.9,81.4z M53.5,81.6C53.5,81.6,53.5,81.6,53.5,81.6C53.5,81.6,53.5,81.6,53.5,81.6C53.5,81.6,53.5,81.6,53.5,81.6L53.5,81.6
			C53.5,81.5,53.5,81.6,53.5,81.6z M53.3,82.5c0.1-0.1,0.1-0.2,0.2-0.2c0.1-0.1,0.1-0.2,0.2-0.2L53.5,82c-0.1,0.1-0.1,0.1-0.1,0.2
			c0,0.1-0.1,0.1-0.1,0.2L53.3,82.5l-0.1,0v0h0c0,0,0,0,0,0c0,0,0,0,0,0c0,0,0,0,0,0s0,0,0,0L53.3,82.5
			C53.2,82.6,53.2,82.6,53.3,82.5C53.3,82.6,53.3,82.5,53.3,82.5z M53.5,83.5c0.1-0.1,0.1-0.2,0.1-0.3c0,0-0.1,0-0.1,0l-0.1,0.1
			c0,0,0,0.1,0.1,0.1C53.4,83.5,53.5,83.5,53.5,83.5z M53,82C53.1,82.1,53.1,82.1,53,82c0.1,0,0.1,0,0.2,0h0v0
			c0.1-0.1,0-0.1-0.1-0.1l0.1,0.1c0,0,0,0,0,0C53.1,82,53.1,82,53,82z M52.9,83.8c0.1,0,0.1,0,0.2-0.1c0,0-0.1,0-0.1,0
			c0,0-0.1,0-0.1,0C52.9,83.6,52.9,83.7,52.9,83.8z M53.7,81c-0.1,0-0.1,0-0.1,0c0,0-0.1,0-0.1,0.1c0,0,0.1,0,0.2,0
			C53.6,81,53.6,81,53.7,81z M53.9,80.2c0,0.1,0,0.1-0.1,0.2c0,0,0,0.1-0.1,0.2c0.1,0.1,0.2,0.2,0.2,0.2c0,0,0.1,0,0.1,0l-0.1-0.3
			c0,0,0-0.1,0-0.1c0,0,0-0.1,0-0.1C54,80.2,53.9,80.2,53.9,80.2z M61.2,69.5C61.2,69.5,61.2,69.5,61.2,69.5
			C61.2,69.5,61.2,69.5,61.2,69.5C61.1,69.5,61.2,69.5,61.2,69.5z M60.9,69.5C60.9,69.5,61,69.5,60.9,69.5
			C61,69.5,61,69.5,60.9,69.5L60.9,69.5C60.9,69.5,60.9,69.5,60.9,69.5z M60.7,69.1L60.7,69.1L60.7,69.1L60.7,69.1z M60.4,69.1
			L60.4,69.1L60.4,69.1L60.4,69.1z M58.3,69.6c0.1,0,0.1,0,0.2,0C58.5,69.5,58.4,69.5,58.3,69.6C58.4,69.5,58.4,69.5,58.3,69.6z
			 M58.1,69.6L58.1,69.6L58.1,69.6L58.1,69.6z M62.4,70.5c0.1,0.2,0.1,0.4,0.1,0.6c0,0.2,0,0.4,0,0.6c-0.1,0.1-0.1,0.2-0.1,0.3
			c0,0.1,0,0.2-0.1,0.3c0,0.1,0,0.2-0.1,0.3c0,0.1-0.1,0.2-0.2,0.2c-0.1,0.1-0.1,0.1-0.2,0.2c0,0.1-0.1,0.2-0.1,0.2
			c-0.2,0.2-0.4,0.5-0.6,0.7c-0.2,0.2-0.4,0.4-0.6,0.7c-0.1,0.2-0.3,0.3-0.4,0.4c-0.1,0.1-0.3,0.3-0.4,0.4c-0.3,0.4-0.7,0.7-1,1.1
			c-0.3,0.3-0.6,0.7-1,1c-0.3,0.3-0.6,0.6-0.9,1c-0.3,0.3-0.6,0.7-0.9,1.1c-0.1,0.2-0.3,0.4-0.4,0.5c-0.2,0.2-0.3,0.4-0.3,0.6
			c-0.1,0-0.1,0.1-0.2,0.2c0,0.1-0.1,0.1-0.1,0.2c0,0.1-0.1,0.1-0.1,0.2c0,0.1-0.1,0.1-0.2,0.2c0,0.2-0.1,0.3-0.2,0.5
			c-0.1,0.2-0.1,0.3-0.1,0.6c0.2,0,0.3,0,0.4-0.1c0.1,0,0.3-0.1,0.5,0c0.1,0,0.2,0,0.3,0c0.1,0,0.2,0,0.4,0c0,0,0.1,0,0.1,0
			c0,0,0.1,0.1,0.1,0.1c0.2,0.2,0.4,0.3,0.7,0.5c0.2,0.2,0.5,0.3,0.7,0.5c0.1,0.1,0.2,0.1,0.2,0.1c0.1,0,0.2,0,0.3,0
			c0.1,0,0.2,0,0.3,0c0.1,0,0.2,0,0.3,0c0.2-0.1,0.3-0.3,0.4-0.4c0.1-0.2,0.1-0.4,0.1-0.6c0-0.1,0-0.2,0-0.2c0,0,0.1-0.1,0.2-0.1
			c0.1,0,0.2,0,0.3,0.1c0.1,0.1,0.1,0.1,0.1,0.2c0,0.2-0.1,0.5-0.1,0.7c0,0.2-0.2,0.4-0.3,0.6c-0.1,0.1-0.2,0.2-0.3,0.3
			c-0.1,0.1-0.3,0.1-0.4,0.2c-0.1,0-0.1,0-0.2,0.1c-0.1,0.1-0.2,0.1-0.3,0.1c-0.1,0-0.2,0-0.4-0.1c0,0-0.1,0-0.2,0
			c-0.2,0-0.3,0-0.5,0c-0.1-0.1-0.3-0.1-0.4-0.2c-0.2-0.1-0.4-0.2-0.6-0.3c-0.2-0.1-0.4-0.2-0.5-0.4c-0.1-0.1-0.2-0.1-0.3-0.1
			c-0.1,0-0.2,0-0.3,0c-0.2,0-0.3,0-0.5,0c-0.1,0-0.3,0.1-0.4,0.2c-0.1,0.1-0.2,0.2-0.3,0.2c-0.1,0.1-0.2,0.2-0.2,0.3
			c0,0.1,0,0.1-0.1,0.1c-0.1,0-0.1,0-0.2,0c-0.2,0-0.3,0-0.4-0.1c-0.1-0.1-0.3-0.2-0.3-0.3c-0.1-0.2-0.2-0.3-0.2-0.5
			c-0.1-0.2,0-0.3,0-0.5c0-0.1,0-0.1,0-0.2c0-0.1,0-0.2,0-0.3c0-0.1,0.1-0.2,0.1-0.3c0.1-0.1,0.1-0.2,0.2-0.3c0-0.1,0.1-0.2,0.1-0.4
			c0.1-0.2,0.2-0.4,0.3-0.6c0.1-0.2,0.2-0.4,0.3-0.6c0.1-0.3,0.3-0.5,0.4-0.7c0.2-0.2,0.3-0.4,0.4-0.7c0-0.1,0.1-0.1,0.2-0.2
			c0.1-0.1,0.1-0.1,0.2-0.2c0.2-0.3,0.3-0.5,0.6-0.7c0.2-0.2,0.4-0.4,0.6-0.7c0,0,0.1-0.1,0.1-0.1c0,0,0.1-0.1,0.1-0.1
			c0,0,0.1,0,0.1-0.1c0,0,0.1,0,0.1-0.1c0.1-0.2,0.3-0.4,0.5-0.5c0.2-0.1,0.4-0.3,0.5-0.5c0.2-0.2,0.3-0.4,0.5-0.5c0,0,0,0,0,0
			c0,0,0,0,0.1,0c0.2-0.2,0.4-0.4,0.6-0.6c0.2-0.2,0.4-0.4,0.6-0.6c0-0.1,0.1-0.1,0.1-0.1c0,0,0.1-0.1,0.1-0.1
			c0.1-0.1,0.2-0.2,0.3-0.2c0.1-0.1,0.2-0.2,0.2-0.3c0.1-0.1,0.2-0.2,0.3-0.3c0.1-0.1,0.2-0.1,0.3-0.2c0.1-0.1,0.1-0.2,0.2-0.3
			c0-0.1,0.1-0.1,0.1-0.1c0,0,0.1-0.1,0.1-0.1c0.2-0.2,0.3-0.3,0.5-0.6c0.1-0.2,0.2-0.4,0.3-0.6c0.1-0.3,0.1-0.5-0.1-0.7
			c-0.1-0.2-0.3-0.4-0.6-0.6c-0.3-0.2-0.6-0.2-0.8-0.2c-0.3,0-0.6,0.1-0.8,0.1c-0.1,0.1-0.2,0.2-0.4,0.2c-0.2,0-0.3,0.1-0.3,0.2
			c0,0-0.1,0.1-0.1,0.1c-0.2,0.1-0.3,0.2-0.5,0.3c-0.1,0.1-0.3,0.2-0.4,0.4c-0.2,0.1-0.3,0.2-0.4,0.4c-0.1,0.1-0.2,0.3-0.4,0.4
			c-0.1,0.1-0.2,0.3-0.3,0.4c-0.1,0.1-0.2,0.3-0.2,0.5c0,0,0,0.1,0,0.2c-0.3,0.4-0.3,0.8,0,1.2c0.2,0.2,0.1,0.4-0.2,0.5
			c-0.1,0.1-0.3,0-0.4,0c-0.1-0.1-0.2-0.2-0.2-0.3c-0.2-0.9,0-1.8,0.5-2.6c0.1-0.1,0.1-0.2,0.2-0.3c0.1-0.1,0.1-0.2,0.2-0.2
			c0.1,0,0.1-0.1,0.1-0.2c0,0,0-0.1,0-0.1c0,0,0-0.1,0.1-0.1c0.2-0.1,0.3-0.2,0.5-0.3c0.1-0.1,0.2-0.3,0.4-0.4
			c0.1-0.1,0.2-0.1,0.3-0.2c0.1-0.1,0.2-0.1,0.4-0.2c0.2-0.1,0.4-0.2,0.7-0.4c0.2-0.1,0.5-0.2,0.8-0.2c0,0,0,0,0.1,0c0,0,0,0,0.1,0
			c0.2-0.2,0.4-0.2,0.7-0.2c0.2,0,0.5,0.1,0.7,0.1c0.3,0.1,0.6,0.2,0.9,0.3c0.3,0.2,0.5,0.4,0.6,0.7c0,0.1,0.1,0.2,0.2,0.4
			C62.3,70.3,62.3,70.4,62.4,70.5z"/>
		<path class="st0" d="M74.1,70.9L74.1,70.9L74.1,70.9L74.1,70.9z M74,71.7L74,71.7L74,71.7L74,71.7z M73.9,73.8L73.9,73.8
			L73.9,73.8L73.9,73.8z M73.8,71.6C73.8,71.6,73.8,71.6,73.8,71.6L73.8,71.6C73.8,71.6,73.8,71.6,73.8,71.6
			C73.8,71.6,73.8,71.6,73.8,71.6z M73.7,73.4c0-0.2,0-0.3-0.1-0.3c0,0,0,0.1,0,0.1c0,0,0,0.1,0,0.1C73.6,73.4,73.6,73.4,73.7,73.4
			C73.7,73.4,73.7,73.4,73.7,73.4z M73.5,73.7C73.5,73.7,73.5,73.7,73.5,73.7c0.1,0,0.1,0,0.2,0c-0.1-0.1-0.1-0.1-0.1-0.1
			C73.5,73.6,73.4,73.6,73.5,73.7z M73.5,74.4L73.5,74.4L73.5,74.4L73.5,74.4z M73.2,73C73.2,72.9,73.2,72.9,73.2,73
			C73.3,72.9,73.3,72.9,73.2,73C73.3,72.9,73.3,72.9,73.2,73C73.2,72.9,73.2,72.9,73.2,73L73.2,73C73.2,72.9,73.2,72.9,73.2,73z
			 M73.1,74.3L73.1,74.3L73.1,74.3L73.1,74.3z M73.8,70.6L73.8,70.6L73.8,70.6L73.8,70.6z M72.4,78.6c0.1,0,0.1,0,0.1-0.1
			C72.5,78.4,72.4,78.4,72.4,78.6C72.4,78.5,72.4,78.6,72.4,78.6z M72.5,75.6C72.5,75.6,72.5,75.6,72.5,75.6L72.5,75.6L72.5,75.6z
			 M72.2,76.9L72.2,76.9C72.2,76.9,72.2,76.9,72.2,76.9z M71.9,76.4C72,76.4,72,76.4,71.9,76.4C72,76.3,71.9,76.3,71.9,76.4
			C71.9,76.3,71.9,76.4,71.9,76.4C71.9,76.4,71.9,76.4,71.9,76.4C71.9,76.4,71.9,76.4,71.9,76.4z M71.2,83.9c0.1,0,0.2-0.1,0.3-0.1
			c0.1,0,0.2,0,0.3-0.1c0-0.1,0-0.1,0-0.1c0,0-0.1,0-0.1-0.1c0,0,0,0,0-0.1c0,0,0-0.1-0.1,0c0,0,0,0.1,0,0.1c0,0,0,0.1-0.1,0.1h-0.2
			c0,0-0.1,0-0.1,0c0,0-0.1,0-0.1,0C71.1,83.8,71.1,83.8,71.2,83.9C71.2,83.9,71.2,83.9,71.2,83.9z M71.2,82.9
			C71.2,82.9,71.2,82.9,71.2,82.9C71.2,82.9,71.2,82.8,71.2,82.9C71.2,82.8,71.2,82.8,71.2,82.9C71.2,82.9,71.2,82.9,71.2,82.9
			C71.2,82.9,71.2,82.9,71.2,82.9z M71.1,81.7C71.1,81.7,71.1,81.7,71.1,81.7c0.1,0.1,0.1,0.1,0.1,0.1c0,0,0.1,0,0.1,0
			C71.2,81.6,71.1,81.6,71.1,81.7z M71,82.6L71,82.6c0-0.1-0.1-0.1-0.1-0.1v0C70.9,82.6,70.9,82.6,71,82.6L71,82.6z M70.9,83.8
			L70.9,83.8L70.9,83.8L70.9,83.8L70.9,83.8z M71.3,78.5L71.3,78.5L71.3,78.5L71.3,78.5z M71.5,82.9C71.4,83,71.4,83,71.5,82.9
			C71.5,83,71.5,83,71.5,82.9C71.5,83,71.5,83,71.5,82.9C71.5,83,71.5,82.9,71.5,82.9z M71.5,82.6C71.5,82.6,71.6,82.6,71.5,82.6
			L71.5,82.6L71.5,82.6L71.5,82.6z M71.7,76.9L71.7,76.9L71.7,76.9L71.7,76.9z M70.2,82.2L70.2,82.2L70.2,82.2z M74.7,68.8
			c0.1-0.1,0.2-0.1,0.3-0.2c0.1,0,0.2,0,0.4,0c0.1,0,0.2,0.1,0.3,0.1c0.1,0.1,0.2,0.1,0.2,0.2c0.1,0.2,0.1,0.5,0,0.7
			c-0.1,0.2-0.1,0.4-0.2,0.6c-0.1,0.2-0.1,0.4-0.2,0.6c0,0.1-0.1,0.2-0.1,0.3c-0.1,0.1-0.1,0.2-0.1,0.3c0,0.1,0,0.2-0.1,0.2
			c-0.1,0.1-0.1,0.1-0.1,0.2c-0.1,0.3-0.1,0.5-0.3,0.8c-0.1,0.3-0.2,0.5-0.2,0.8c-0.1,0.1-0.2,0.3-0.2,0.5s-0.1,0.4-0.2,0.5
			c-0.1,0.2-0.2,0.3-0.2,0.5c0,0.2-0.1,0.4-0.1,0.5c-0.1,0.1-0.1,0.2-0.1,0.3c0,0.1-0.1,0.2,0,0.3c0,0.1,0,0.1-0.1,0.2
			c-0.1,0.1-0.1,0.1-0.1,0.2c0,0.3-0.1,0.6-0.2,0.9c-0.1,0.3-0.2,0.6-0.3,0.9c-0.1,0.2-0.1,0.4-0.2,0.6c-0.1,0.2-0.1,0.4-0.1,0.6
			c0,0.1,0,0.1-0.1,0.2c-0.1,0.2-0.1,0.3-0.1,0.5c0,0.2-0.1,0.3-0.1,0.5c-0.1,0.2-0.1,0.4-0.2,0.6c0,0.2-0.1,0.4-0.1,0.6
			c0,0.2-0.1,0.4-0.1,0.5c0,0.2,0,0.3,0,0.5c0,0.1,0,0.1,0,0.2c0,0,0,0.1,0,0.1c0.1,0.1,0.2,0.2,0.3,0.1c0,0,0.1,0,0.1,0
			c0,0,0.1,0,0.1,0c0.1,0,0.2,0,0.2,0.1c0.1,0.1,0,0.1-0.1,0.2c-0.2,0.1-0.4,0.3-0.7,0.4c-0.2,0.1-0.5,0.2-0.7,0.2
			c-0.1,0-0.3,0-0.4,0s-0.3-0.1-0.4-0.2c-0.2-0.1-0.3-0.3-0.4-0.4c-0.1-0.2-0.2-0.3-0.2-0.6c0-0.1,0-0.3-0.1-0.4
			c0-0.2,0-0.3,0.1-0.4c0-0.3,0-0.6,0.1-0.9c0.1-0.3,0.2-0.6,0.2-0.8c0.1-0.3,0.1-0.6,0.2-0.9c0.1-0.3,0.2-0.6,0.3-0.9
			c0.1-0.2,0.1-0.4,0.2-0.6c0.1-0.2,0.1-0.4,0.2-0.6c0.1-0.3,0.2-0.6,0.3-0.9c0.1-0.3,0.2-0.6,0.3-0.9c0.1-0.2,0.1-0.3,0.2-0.5
			c0.1-0.2,0.1-0.3,0.2-0.5c0.1-0.2,0.2-0.4,0.2-0.6c0.1-0.2,0.1-0.4,0.2-0.6c0.1-0.1,0.1-0.2,0.1-0.3c0-0.1,0.1-0.2,0.1-0.3
			c0-0.1,0.1-0.3,0.1-0.4c0-0.1,0.1-0.2,0.2-0.4c-0.1-0.1-0.3-0.1-0.4,0c0,0-0.1,0-0.1,0c0,0-0.1,0-0.1,0c-0.1,0-0.1,0-0.2,0
			c-0.1,0-0.1,0-0.1-0.1c0-0.1,0-0.1,0-0.2c0,0,0.1-0.1,0.1-0.1c0.4-0.4,0.8-0.8,1.1-1.2c0.3-0.4,0.7-0.9,1-1.3
			c0.1-0.1,0.2-0.2,0.2-0.3C74.5,69,74.6,68.9,74.7,68.8z M64.6,80.6c0,0.1,0,0.2,0,0.3c0,0.1,0,0.2,0.1,0.3c0,0.1,0.1,0.2,0.1,0.3
			c0,0.1,0.1,0.2,0.1,0.3c0,0.2,0.1,0.4,0.2,0.5c0.1,0.1,0.2,0.3,0.3,0.4c0.1,0.1,0.2,0.2,0.3,0.2c0.1,0,0.2,0,0.3-0.1
			c0.2-0.1,0.3-0.2,0.5-0.3c0.1-0.1,0.2-0.3,0.4-0.5c0.3-0.4,0.5-0.8,0.7-1.2c0.2-0.4,0.4-0.9,0.5-1.3c0.1-0.2,0.2-0.4,0.2-0.6
			c0.1-0.2,0.2-0.4,0.2-0.6c0.1-0.3,0.2-0.5,0.2-0.8c0.1-0.3,0.1-0.5,0.2-0.8c0.1-0.2,0.1-0.4,0.2-0.6c0.1-0.2,0.1-0.4,0.2-0.6
			c0-0.2,0.1-0.4,0.1-0.5c0.1-0.2,0.1-0.4,0.1-0.6c0-0.2,0-0.4,0.1-0.5c0.1-0.2,0.1-0.4,0.1-0.6c0-0.4,0-0.7,0.1-1.1
			c0-0.2,0-0.3,0-0.4c0-0.1,0-0.3,0-0.4c0-0.2,0-0.4,0-0.6c0-0.2-0.1-0.4-0.1-0.6c-0.1-0.3-0.2-0.5-0.4-0.5c-0.2-0.1-0.4,0-0.7,0.2
			c-0.2,0.2-0.5,0.4-0.6,0.6c-0.3,0.4-0.6,0.7-0.8,1.1c-0.3,0.4-0.5,0.8-0.6,1.2c0,0.1,0,0.1-0.1,0.1c-0.1,0.1-0.2,0.2-0.2,0.3
			c0,0.2-0.1,0.3-0.2,0.4c0,0.3-0.1,0.5-0.2,0.8c-0.1,0.2-0.2,0.5-0.3,0.8c-0.1,0.3-0.2,0.6-0.3,0.9c-0.1,0.2-0.2,0.4-0.2,0.7
			c0,0.2-0.1,0.4-0.2,0.7c-0.1,0.2-0.1,0.5-0.1,0.7c0,0.3-0.1,0.5-0.1,0.8c0,0,0,0.1,0,0.2c0,0.3,0,0.6,0,0.8
			C64.7,80,64.6,80.3,64.6,80.6z M64.5,83.2c0.1,0,0.1,0,0.2,0c0,0,0-0.1,0-0.1c0,0,0-0.1,0-0.2c0,0.1,0,0.2-0.1,0.2
			C64.5,83.1,64.5,83.2,64.5,83.2z M64.4,77.5C64.4,77.5,64.4,77.5,64.4,77.5c0.1,0,0.1,0,0.1-0.1C64.4,77.4,64.4,77.4,64.4,77.5
			C64.4,77.5,64.4,77.5,64.4,77.5z M64.3,78.1c0.1-0.1,0.1-0.2,0.1-0.2C64.2,77.9,64.2,77.9,64.3,78.1C64.2,78,64.2,78,64.3,78.1
			C64.2,78.1,64.3,78.1,64.3,78.1z M64.3,80.7L64.3,80.7L64.3,80.7L64.3,80.7L64.3,80.7z M64.2,82.4C64.2,82.4,64.2,82.4,64.2,82.4
			L64.2,82.4C64.2,82.4,64.2,82.5,64.2,82.4C64.2,82.5,64.2,82.5,64.2,82.4C64.2,82.4,64.2,82.4,64.2,82.4z M64.2,83.3L64.2,83.3
			L64.2,83.3L64.2,83.3L64.2,83.3z M64.1,82.6c-0.1,0-0.1,0.1,0,0.2c0.1,0,0.1,0,0.1-0.1C64.1,82.7,64.1,82.7,64.1,82.6z M63.9,75.6
			c0.1,0.1,0.1,0.1,0.2,0c0.1-0.1,0.1-0.1,0.2,0c0,0,0,0,0.1,0c0,0,0.1,0,0.1,0c0,0,0-0.1,0-0.1c0,0,0-0.1,0-0.1c-0.1,0-0.1,0-0.2,0
			c0,0-0.1,0-0.1,0L64,75.5L63.9,75.6z M63.8,82.9C63.8,83,63.8,83,63.8,82.9C63.8,82.9,63.8,82.9,63.8,82.9
			C63.8,82.9,63.8,82.9,63.8,82.9C63.8,82.9,63.8,82.9,63.8,82.9C63.8,82.9,63.8,82.9,63.8,82.9L63.8,82.9z M63.8,83.7
			C63.8,83.7,63.8,83.7,63.8,83.7C63.8,83.6,63.8,83.6,63.8,83.7C63.8,83.6,63.8,83.6,63.8,83.7C63.8,83.6,63.8,83.7,63.8,83.7z
			 M63.7,82.6L63.7,82.6L63.7,82.6L63.7,82.6z M63.7,82.1C63.7,82.2,63.7,82.2,63.7,82.1c0,0.1,0,0.1,0,0.1c0,0,0.1,0,0.1,0
			C63.8,82.3,63.7,82.2,63.7,82.1C63.7,82.2,63.7,82.2,63.7,82.1L63.7,82.1C63.7,82.1,63.7,82.1,63.7,82.1
			C63.7,82.1,63.7,82.1,63.7,82.1C63.7,82.1,63.7,82.1,63.7,82.1L63.7,82.1z M63.7,81C63.7,80.9,63.7,80.9,63.7,81L63.7,81L63.7,81
			C63.7,81,63.7,81,63.7,81C63.7,81,63.7,81,63.7,81z M63.7,79.2L63.7,79.2L63.7,79.2z M63.6,76.4C63.6,76.4,63.6,76.3,63.6,76.4
			c-0.1-0.1-0.1-0.1-0.1-0.1c0,0,0,0.1,0,0.1c0,0,0,0,0,0.1H63.6z M63.4,76.8C63.4,76.7,63.4,76.7,63.4,76.8c0-0.1,0-0.1-0.1-0.2
			c0,0,0,0.1,0,0.1C63.3,76.7,63.4,76.8,63.4,76.8z M63.2,75.4C63.2,75.4,63.2,75.4,63.2,75.4C63.3,75.5,63.3,75.5,63.2,75.4
			c0.2,0,0.2,0,0.3,0c0.1,0,0.1,0,0.1-0.1c-0.1,0-0.1,0-0.1,0C63.4,75.3,63.3,75.3,63.2,75.4z M63.3,75.7L63.3,75.7L63.3,75.7
			L63.3,75.7z M63.3,80.6L63.3,80.6L63.3,80.6L63.3,80.6L63.3,80.6z M63.1,79.5C63.1,79.5,63.1,79.6,63.1,79.5
			C63.1,79.6,63.1,79.6,63.1,79.5C63.2,79.5,63.1,79.5,63.1,79.5z M63.6,74.6c-0.1,0-0.1,0-0.1,0.1c0,0,0,0.1,0,0.1
			c0.1,0,0.1,0,0.1,0C63.6,74.8,63.6,74.7,63.6,74.6z M63.8,74.5C63.8,74.5,63.8,74.5,63.8,74.5C63.8,74.5,63.8,74.5,63.8,74.5
			C63.8,74.5,63.8,74.5,63.8,74.5C63.8,74.6,63.8,74.5,63.8,74.5z M63.9,74.2c0-0.1-0.1-0.2-0.2-0.2c0,0.1,0,0.1,0,0.1
			C63.8,74.2,63.9,74.2,63.9,74.2z M64,73.4L64,73.4L64,73.4L64,73.4L64,73.4z M64.2,73.7C64.2,73.8,64.1,73.8,64.2,73.7
			c-0.1,0.1-0.1,0.1,0,0.2c0,0,0,0,0-0.1C64.2,73.9,64.3,73.8,64.2,73.7C64.3,73.8,64.2,73.8,64.2,73.7z M64.5,76.1
			C64.5,76.1,64.5,76.1,64.5,76.1C64.5,76.1,64.5,76.1,64.5,76.1C64.5,76.1,64.5,76.1,64.5,76.1C64.5,76.1,64.5,76.1,64.5,76.1
			C64.5,76,64.5,76,64.5,76.1C64.5,76.1,64.5,76.1,64.5,76.1z M64.1,76.7C64.1,76.7,64.2,76.7,64.1,76.7c0.1,0,0.1,0,0.1,0h0v0
			c0,0,0,0,0,0c0,0,0,0,0.1,0c0,0,0-0.1-0.1-0.1v0.2c0,0,0,0,0,0h0H64.1z M64.3,76.9C64.3,76.9,64.3,76.9,64.3,76.9
			c0,0.1,0,0.1,0,0.2c0,0,0.1,0.1,0.1,0.1c0.1-0.1,0.2-0.1,0.2-0.2c0,0,0-0.1,0-0.2C64.5,76.9,64.4,76.9,64.3,76.9z M64.8,76.5
			c0-0.1-0.1-0.1-0.1-0.1c0,0,0-0.1-0.1-0.1c0,0,0,0,0,0c0,0,0,0,0,0c0,0,0,0,0,0.1c0,0,0,0,0,0c0,0,0,0,0,0
			C64.7,76.5,64.7,76.5,64.8,76.5z M64.3,74.5L64.3,74.5C64.2,74.5,64.2,74.5,64.3,74.5c0,0.1,0,0.1,0.1,0.1c0,0,0-0.1,0-0.1
			c0,0,0,0,0,0c0.1,0,0.1,0,0.2,0c0.1,0,0.1,0,0.2,0c0,0,0,0,0-0.1h-0.3c0,0-0.1,0.1-0.1,0.1h0v0H64.3z M64.4,73
			C64.4,73,64.4,73,64.4,73C64.4,73,64.4,73,64.4,73L64.4,73L64.4,73z M64.6,74.1C64.6,74.1,64.5,74,64.6,74.1
			C64.5,74,64.5,74,64.5,74C64.5,74,64.5,74.1,64.6,74.1C64.5,74.1,64.5,74.1,64.6,74.1z M64.6,72.6h0.1v0L64.6,72.6L64.6,72.6z
			 M64.8,73.3L64.8,73.3L64.8,73.3L64.8,73.3L64.8,73.3z M65.4,72.6c-0.1-0.1-0.1,0-0.2,0C65.3,72.7,65.4,72.7,65.4,72.6z
			 M65.6,73.1c-0.1,0-0.1,0-0.1,0c0,0,0,0,0,0.1l0.1,0.1C65.6,73.2,65.6,73.1,65.6,73.1z M65.6,72.1C65.6,72.1,65.6,72.1,65.6,72.1
			C65.5,72.1,65.6,72.1,65.6,72.1C65.6,72.1,65.6,72.1,65.6,72.1L65.6,72.1z M65.6,71.4C65.6,71.4,65.6,71.4,65.6,71.4
			C65.6,71.4,65.6,71.5,65.6,71.4C65.6,71.5,65.6,71.5,65.6,71.4L65.6,71.4L65.6,71.4z M65.8,73C65.8,73,65.8,73,65.8,73
			c0,0.1,0,0.1-0.1,0.2C65.8,73.1,65.8,73.1,65.8,73C65.8,73,65.9,73,65.8,73C65.9,73,65.8,73,65.8,73C65.8,73,65.8,73,65.8,73z
			 M65.9,71C65.9,71,65.9,71,65.9,71c-0.1,0.1-0.1,0.1-0.1,0.1c0.1,0.1,0.1,0.1,0.2,0C65.9,71.1,65.9,71,65.9,71z M66.6,71.2
			c-0.1,0-0.1,0-0.1,0c0,0,0,0,0,0.1c0.1,0,0.1,0,0.1,0C66.5,71.3,66.6,71.3,66.6,71.2z M66.8,71.3L66.8,71.3L66.8,71.3L66.8,71.3
			L66.8,71.3z M67.8,69.1c-0.1,0-0.1,0-0.2,0c0,0-0.1,0.1-0.1,0.1v0.1c0.1,0.1,0.2,0.1,0.3,0C67.8,69.3,67.8,69.3,67.8,69.1z
			 M68.4,69.2c0,0,0.1-0.1,0.1-0.1c0,0,0.1-0.1,0.1-0.1c0,0-0.1-0.1-0.2-0.1V69.2z M68.9,78.4C68.8,78.5,68.8,78.5,68.9,78.4
			c-0.1,0.1-0.1,0.1,0,0.2V78.4z M65.2,83.4c0-0.1,0.1-0.1,0.1-0.1c0,0,0-0.1,0-0.2c-0.1,0.1-0.1,0.1-0.1,0.2
			C65.1,83.3,65.2,83.3,65.2,83.4z M62.8,82.4C62.8,82.4,62.8,82.4,62.8,82.4l-0.2-0.1L62.8,82.4C62.8,82.5,62.8,82.4,62.8,82.4z
			 M62.3,80.6L62.3,80.6L62.3,80.6L62.3,80.6z M65.9,83.7c-0.2,0.1-0.3,0.2-0.5,0.3c-0.2,0.1-0.4,0.1-0.6,0.2
			c-0.1,0-0.2,0.1-0.3,0.1c-0.1,0.1-0.2,0.1-0.3,0c-0.3,0-0.5-0.1-0.7-0.2c-0.2-0.1-0.4-0.2-0.6-0.4c-0.3-0.3-0.6-0.6-0.7-1
			c-0.1-0.4-0.2-0.7-0.3-1.1c0-0.1-0.1-0.3-0.1-0.4c0-0.1,0-0.3,0-0.5c0-0.1,0-0.2,0-0.4c0-0.1,0-0.2,0-0.4c0-0.1,0-0.3,0-0.4
			c0-0.1,0-0.3,0-0.4C62,79,62,78.8,62,78.6c0-0.2,0.1-0.4,0.1-0.6c0.1-0.2,0.1-0.3,0.1-0.5c0-0.2,0.1-0.3,0.1-0.5
			c0.1-0.3,0.2-0.6,0.3-0.9c0.1-0.3,0.2-0.6,0.3-0.9c0-0.1,0.1-0.2,0.1-0.3c0-0.1,0-0.2,0.1-0.2c0.1-0.1,0.1-0.2,0.1-0.3
			c0-0.1,0.1-0.2,0.1-0.3c0.1-0.2,0.2-0.4,0.2-0.6c0.1-0.2,0.2-0.4,0.3-0.5c0-0.2,0.1-0.3,0.2-0.4c0.1-0.1,0.2-0.2,0.2-0.4
			c0-0.1,0-0.1,0.1-0.1c0,0,0.1-0.1,0.1-0.1c0,0,0.1-0.1,0.1-0.1c0,0,0.1-0.1,0.1-0.1c0.1-0.1,0.1-0.3,0.2-0.4
			c0.1-0.1,0.2-0.2,0.3-0.3c0.1-0.1,0.2-0.2,0.3-0.3c0.1-0.1,0.2-0.2,0.2-0.3c0.2-0.1,0.4-0.3,0.6-0.5c0.2-0.2,0.4-0.4,0.6-0.5
			c0.4-0.2,0.8-0.5,1.2-0.6c0,0,0.1,0,0.1,0c0.2,0,0.4,0,0.5-0.1c0.2-0.1,0.4-0.1,0.5-0.1c0.5,0.1,0.8,0.4,1,0.8
			c0.1,0.2,0.2,0.3,0.2,0.5c0.1,0.2,0.1,0.4,0.2,0.5c0.1,0.3,0.1,0.7,0.1,1c0,0.3,0,0.7-0.1,1v0c0.1,0.1,0.1,0.2,0.1,0.3
			c0,0.1,0,0.2,0,0.3c0,0.1,0,0.2-0.1,0.3c0,0.1-0.1,0.2-0.1,0.3c0,0.2,0,0.4-0.1,0.6c0,0.2-0.1,0.4-0.1,0.6
			c-0.1,0.3-0.1,0.6-0.2,0.9c-0.1,0.3-0.1,0.6-0.2,0.9c-0.1,0.2-0.1,0.4-0.2,0.6c-0.1,0.2-0.1,0.4-0.2,0.6c-0.1,0.3-0.2,0.6-0.3,0.9
			c-0.1,0.3-0.2,0.6-0.3,0.9c-0.1,0.3-0.2,0.6-0.3,0.8c-0.1,0.3-0.3,0.5-0.4,0.8c-0.2,0.3-0.3,0.6-0.5,0.8c-0.2,0.3-0.4,0.5-0.7,0.7
			c-0.2,0.1-0.3,0.3-0.5,0.4C66.2,83.5,66,83.6,65.9,83.7z"/>
		<path class="st0" d="M81.4,69.3C81.5,69.2,81.5,69.2,81.4,69.3c0.1-0.1,0.1-0.1,0.1-0.1h-0.2C81.4,69.2,81.4,69.2,81.4,69.3
			C81.4,69.2,81.4,69.2,81.4,69.3 M80.9,69.4L80.9,69.4L80.9,69.4L80.9,69.4z M80.4,70c0,0,0.1-0.1,0.1-0.1c0,0,0.1-0.1,0.2-0.1
			c-0.1-0.1-0.2-0.1-0.2,0C80.4,69.8,80.4,69.9,80.4,70L80.4,70C80.3,69.9,80.3,69.9,80.4,70C80.4,70,80.4,70,80.4,70z M80.1,69.9
			C80.1,69.9,80.1,69.9,80.1,69.9c0.1-0.1,0.1-0.1,0.1-0.2c-0.1,0-0.1,0-0.2,0C80,69.7,80,69.7,80.1,69.9C80,69.8,80,69.9,80.1,69.9
			C80,69.9,80.1,69.9,80.1,69.9z M80,70.4C80.1,70.4,80.1,70.3,80,70.4c0.1,0,0.1,0,0.2-0.1c0,0,0,0,0-0.1c0,0,0,0,0-0.1
			c-0.1,0-0.1,0-0.2,0C80,70.2,80,70.3,80,70.4C80,70.3,80,70.3,80,70.4z M79.7,70.8c0-0.1,0.1-0.1,0.1-0.2c0,0-0.1,0-0.1,0
			c0,0-0.1,0-0.1,0c0,0,0,0,0,0.1c0,0,0,0,0,0.1C79.5,70.7,79.6,70.8,79.7,70.8z M79.5,71.1C79.5,71.1,79.6,71.1,79.5,71.1
			c0.1-0.1,0.2-0.1,0.2-0.1c0,0,0-0.1-0.1-0.1c0,0,0-0.1-0.1-0.1c0,0-0.1,0.1-0.1,0.1C79.5,71,79.5,71,79.5,71.1z M79.5,70L79.5,70
			L79.5,70L79.5,70z M79.3,70.4C79.3,70.4,79.4,70.4,79.3,70.4l0.1-0.2c-0.1,0-0.1,0-0.2,0c-0.1,0-0.1,0.1-0.2,0.2H79.3z M79.4,70.6
			C79.3,70.6,79.3,70.6,79.4,70.6L79.4,70.6L79.4,70.6C79.3,70.7,79.3,70.7,79.4,70.6C79.3,70.7,79.3,70.6,79.4,70.6L79.4,70.6
			L79.4,70.6z M79.2,71L79.2,71L79.2,71L79.2,71z M79,71.4C79.1,71.4,79.1,71.4,79,71.4C79,71.4,79,71.4,79,71.4z M78.8,71.1
			c0.1,0,0.1,0,0.1,0c0,0,0,0,0-0.1C79,71,78.9,71,78.8,71.1C78.9,71,78.9,71.1,78.8,71.1z M78.7,71.1c-0.1,0-0.1,0-0.1,0
			c0,0-0.1,0-0.1,0v0.4c0.1-0.1,0.1-0.2,0.1-0.2L78.7,71.1z M78.6,71.9L78.6,71.9L78.6,71.9L78.6,71.9z M78.6,77.7
			c-0.1,0-0.1,0-0.2,0c0.1,0.1,0.1,0.2,0.2,0.2c0,0,0,0,0.1,0C78.7,77.8,78.7,77.7,78.6,77.7z M78.8,77.3c0-0.1-0.1-0.2-0.1-0.2
			c0,0-0.1-0.1-0.2-0.1c0,0.1,0,0.1,0,0.2c0,0,0,0.1,0,0.1H78.8z M78.8,77.7C78.8,77.7,78.8,77.7,78.8,77.7
			C78.8,77.7,78.8,77.7,78.8,77.7C78.8,77.7,78.8,77.7,78.8,77.7L78.8,77.7z M79,77.6C79,77.6,79,77.6,79,77.6
			C79,77.7,79,77.7,79,77.8c0.1,0.1,0.1,0.1,0.1,0.1c0.1-0.1,0.1-0.1,0.1-0.1C79.2,77.7,79.1,77.6,79,77.6z M79.4,77.7
			c0,0.1,0,0.2,0,0.2c0,0,0,0,0,0c0.1-0.1,0.1-0.1,0.1-0.1c0,0,0-0.1,0-0.1C79.6,77.7,79.5,77.7,79.4,77.7
			C79.5,77.7,79.5,77.7,79.4,77.7z M80.7,77.1C80.7,77.2,80.6,77.2,80.7,77.1c-0.1,0.1-0.2,0.1-0.2,0.1l0,0h0.3c0,0,0,0,0,0l0,0
			C80.8,77.2,80.8,77.2,80.7,77.1z M80.8,79.5c0.1,0,0.1,0.1,0.1,0.1c0,0,0.1,0,0.2,0c0-0.1-0.1-0.1-0.2-0.2L80.8,79.5z M81.1,79
			C81.1,79,81.1,79,81.1,79L81.1,79L81.1,79z M81.3,78.7c-0.1,0-0.1,0-0.1,0c0,0,0,0.1-0.1,0.1C81.2,78.8,81.3,78.8,81.3,78.7z
			 M81.1,77.1C81.1,77.1,81.1,77.1,81.1,77.1L81.1,77.1C81.1,77.1,81.1,77.1,81.1,77.1C81.1,77.1,81.1,77.1,81.1,77.1
			C81.1,77.1,81.1,77.1,81.1,77.1z M81.3,77.9c0-0.1,0-0.1-0.1-0.1v0.1C81.2,77.9,81.2,77.9,81.3,77.9
			C81.3,77.9,81.3,77.9,81.3,77.9L81.3,77.9L81.3,77.9c0.1,0.1,0.1,0.1,0.2,0L81.3,77.9L81.3,77.9L81.3,77.9z M81.7,77.5
			c0,0-0.1,0-0.2,0c0.1,0,0.1,0,0.1,0.1c0,0,0.1,0,0.1,0.1c0,0,0,0,0,0h0v0C81.7,77.7,81.7,77.6,81.7,77.5
			C81.7,77.6,81.7,77.6,81.7,77.5z M81.8,75.8c-0.1,0.1-0.1,0.2-0.1,0.2c0,0,0,0,0,0.1c0.1,0,0.1,0,0.1,0c0,0,0.1,0,0.1,0
			c0,0,0,0,0.1-0.1c0,0,0,0,0.1,0c0,0,0,0,0,0c0,0,0.1,0,0.2,0c-0.1,0-0.1,0-0.1,0c0,0,0,0,0,0h0c-0.1,0-0.1-0.1-0.1-0.1
			C82,75.9,81.9,75.8,81.8,75.8z M82.6,74.8c-0.1-0.1-0.1-0.1-0.2-0.1c-0.1,0-0.1,0-0.2,0c0.1,0.1,0.1,0.1,0.1,0.1
			C82.4,74.8,82.5,74.8,82.6,74.8z M82.3,75.3c0.1,0.1,0.2,0.1,0.3,0c0,0,0,0,0,0c0,0,0,0,0-0.1L82.3,75.3z M82.5,75.7
			c0.1,0,0.1,0,0.1-0.1C82.6,75.6,82.6,75.6,82.5,75.7C82.6,75.7,82.6,75.7,82.5,75.7z M82.8,75.8C82.8,75.9,82.8,75.9,82.8,75.8
			c-0.1,0-0.1,0-0.1,0c0,0,0,0.1,0,0.1c0,0,0,0.1,0,0.1c0,0,0,0,0,0c0,0,0,0,0,0C82.8,76,82.8,75.9,82.8,75.8z M82.7,74.6L82.7,74.6
			L82.7,74.6L82.7,74.6z M82.6,76.4C82.7,76.4,82.7,76.3,82.6,76.4c0.1-0.1,0.1-0.1,0.1-0.2c-0.1-0.1-0.1-0.1-0.1,0
			C82.6,76.2,82.6,76.3,82.6,76.4C82.6,76.4,82.6,76.4,82.6,76.4z M82.6,75.9c-0.1,0-0.1,0.1-0.1,0.1C82.6,76,82.6,76,82.6,75.9z
			 M82.5,77.5c0.1,0,0.1-0.1,0-0.2C82.5,77.3,82.4,77.4,82.5,77.5C82.5,77.5,82.5,77.5,82.5,77.5C82.5,77.5,82.5,77.5,82.5,77.5z
			 M82.3,78.1C82.3,78.1,82.3,78.1,82.3,78.1c0.1-0.1,0.1-0.1,0.2-0.1c0-0.1,0-0.2-0.1-0.3c0-0.1-0.1-0.2-0.1-0.3v0v0
			c0,0.1,0,0.1-0.1,0.2c0,0.1,0,0.1-0.1,0.2c0,0.1,0,0.1,0.1,0.2C82.2,78,82.2,78.1,82.3,78.1z M82.3,78.4L82.3,78.4L82.3,78.4
			L82.3,78.4c0,0,0,0.1,0,0.1V78.4z M82.2,78.8C82.2,78.8,82.2,78.8,82.2,78.8c0-0.1,0-0.1,0-0.1h0L82.2,78.8L82.2,78.8z M82,79
			c0.1,0,0.1,0,0.2,0c0-0.1,0-0.1,0-0.2C82.1,78.9,82.1,78.9,82,79C82.1,79,82,79,82,79z M82,76.6C82,76.6,82,76.6,82,76.6
			c-0.1,0-0.1,0-0.2,0C81.9,76.6,81.9,76.7,82,76.6C82,76.7,82,76.7,82,76.6C82,76.7,82,76.7,82,76.6C82,76.7,82,76.6,82,76.6z
			 M82.1,78.6c-0.1,0-0.1-0.1-0.1-0.1s0,0,0,0C81.9,78.6,82,78.6,82.1,78.6z M82.3,76.4C82.3,76.4,82.2,76.4,82.3,76.4
			C82.2,76.4,82.2,76.4,82.3,76.4c0-0.1,0-0.1,0.1-0.2c-0.1,0-0.1,0-0.2,0c-0.1,0-0.1,0-0.2,0c0,0,0,0,0,0.1c0,0,0,0.1,0,0.1
			c0.1,0,0.1,0.1,0.2,0.1c0,0,0,0,0.1-0.1c0,0,0,0,0.1,0L82.3,76.4C82.2,76.5,82.3,76.5,82.3,76.4z M81.9,79.7
			C81.9,79.7,81.9,79.6,81.9,79.7c0-0.1,0-0.1,0-0.1C81.9,79.6,81.9,79.6,81.9,79.7L81.9,79.7z M81.7,78.8L81.7,78.8
			C81.7,78.8,81.7,78.8,81.7,78.8L81.7,78.8L81.7,78.8z M81.7,80.3L81.7,80.3L81.7,80.3L81.7,80.3z M81.6,79.8c0,0-0.1-0.1-0.1-0.1
			c0,0-0.1,0-0.1,0c0,0,0,0.1,0,0.1c0,0,0,0.1,0,0.1c0,0,0.1,0,0.1,0c0,0,0.1,0,0.1,0V79.8z M81.4,81.1
			C81.4,81.1,81.4,81.1,81.4,81.1c0-0.1,0-0.1,0.1-0.1c0,0,0,0,0,0s0,0,0,0c0,0,0,0,0,0c0,0,0,0,0,0c0,0,0,0-0.1,0.1
			C81.3,81,81.3,81.1,81.4,81.1C81.4,81.1,81.4,81.1,81.4,81.1z M81.3,78.5C81.3,78.5,81.3,78.4,81.3,78.5c0.1-0.1,0.1-0.1,0.2-0.1
			C81.4,78.4,81.3,78.4,81.3,78.5C81.3,78.4,81.3,78.4,81.3,78.5C81.3,78.4,81.3,78.4,81.3,78.5z M81.5,79.2
			C81.5,79.2,81.5,79.2,81.5,79.2L81.5,79.2C81.5,79.2,81.5,79.2,81.5,79.2L81.5,79.2z M81.4,78.6C81.4,78.6,81.5,78.7,81.4,78.6
			c0.1,0.1,0.2,0.1,0.2,0c0,0,0,0,0-0.1c0,0,0,0,0-0.1C81.5,78.5,81.5,78.5,81.4,78.6z M81.1,80.4c0,0,0.1,0,0.1-0.1
			c0,0,0.1,0,0.2-0.1c-0.1,0-0.2,0-0.2,0C81.2,80.3,81.1,80.3,81.1,80.4z M81,80.6C81,80.6,81,80.6,81,80.6C81,80.6,81,80.6,81,80.6
			C81,80.6,81,80.6,81,80.6L81,80.6z M80.9,82.1c0.1,0,0.1-0.1,0-0.2C80.9,82,80.9,82.1,80.9,82.1c-0.1,0-0.1,0-0.1,0
			c-0.1,0.1-0.1,0.1-0.1,0.1c0,0,0,0.1,0,0.1c0-0.1,0.1-0.1,0.1-0.1C80.9,82.2,80.9,82.2,80.9,82.1z M80.5,81.8c0,0.1,0.1,0.1,0.2,0
			H80.5L80.5,81.8L80.5,81.8c0-0.1,0-0.1-0.1-0.1C80.4,81.8,80.4,81.8,80.5,81.8L80.5,81.8L80.5,81.8z M80.5,82.1L80.5,82.1
			L80.5,82.1L80.5,82.1L80.5,82.1z M80.4,81.3C80.4,81.3,80.4,81.3,80.4,81.3C80.4,81.3,80.4,81.3,80.4,81.3
			C80.4,81.3,80.4,81.3,80.4,81.3C80.4,81.3,80.4,81.3,80.4,81.3C80.4,81.3,80.4,81.3,80.4,81.3z M80.8,80.1c-0.1,0-0.1,0-0.2,0.1
			C80.8,80.1,80.8,80.1,80.8,80.1z M80.9,80.5C81,80.5,81,80.4,80.9,80.5L80.9,80.5C80.9,80.4,80.9,80.4,80.9,80.5
			C80.9,80.4,80.9,80.5,80.9,80.5z M80.9,79.9C80.9,79.9,80.9,79.9,80.9,79.9c0-0.1,0-0.1,0-0.1c0,0,0,0-0.1-0.1c0,0.1,0,0.1,0,0.1
			C80.8,79.9,80.9,79.9,80.9,79.9z M80.7,77.4c0,0.1,0,0.1,0.1,0.1c0,0,0.1,0,0.1,0c0,0,0,0-0.1,0C80.8,77.4,80.7,77.4,80.7,77.4z
			 M80.2,82.8L80.2,82.8L80.2,82.8L80.2,82.8L80.2,82.8z M80,82.5c0.1-0.1,0-0.1,0-0.1c0,0,0,0-0.1,0C79.9,82.4,79.9,82.5,80,82.5
			C80,82.5,80,82.5,80,82.5z M80,82.9C80,82.9,80,82.9,80,82.9C80,82.9,80,82.9,80,82.9C80,82.9,80,82.9,80,82.9
			C80,82.9,80,82.9,80,82.9C80,82.9,80,82.9,80,82.9z M80,83.1C80,83.1,80,83.1,80,83.1L80,83.1L80,83.1z M79.8,83.2L79.8,83.2
			L79.8,83.2L79.8,83.2z M79.6,83.5C79.6,83.5,79.6,83.5,79.6,83.5L79.6,83.5C79.6,83.4,79.6,83.4,79.6,83.5
			C79.6,83.5,79.6,83.5,79.6,83.5C79.6,83.5,79.6,83.5,79.6,83.5z M79.2,83.5C79.2,83.5,79.2,83.5,79.2,83.5L79.2,83.5L79.2,83.5
			C79.2,83.5,79.2,83.5,79.2,83.5z M79,83.8L79,83.8L79,83.8z M78.6,84.1C78.6,84.1,78.6,84.1,78.6,84.1
			C78.6,84.1,78.6,84.1,78.6,84.1C78.6,84.1,78.6,84.1,78.6,84.1C78.6,84.1,78.6,84.1,78.6,84.1C78.6,84.1,78.5,84.1,78.6,84.1
			C78.5,84.1,78.5,84.1,78.6,84.1z M78.1,76.7C78.1,76.7,78.1,76.8,78.1,76.7c0.1,0.1,0.2,0.1,0.2,0.1
			C78.2,76.8,78.2,76.7,78.1,76.7C78.1,76.7,78.1,76.7,78.1,76.7z M78,76.2C78,76.1,78,76.1,78,76.2C78,76.1,78,76.1,78,76.2
			C78,76.1,78,76.1,78,76.2L78,76.2L78,76.2z M77.9,76.3C77.9,76.3,77.9,76.3,77.9,76.3C77.9,76.3,77.9,76.3,77.9,76.3
			C77.9,76.3,77.9,76.3,77.9,76.3L77.9,76.3L77.9,76.3z M77.8,74.3L77.8,74.3C77.9,74.3,77.9,74.3,77.8,74.3
			C77.9,74.3,77.8,74.3,77.8,74.3L77.8,74.3z M77.8,76.6C77.8,76.6,77.8,76.6,77.8,76.6C77.8,76.6,77.8,76.6,77.8,76.6L77.8,76.6
			C77.8,76.6,77.8,76.6,77.8,76.6z M77.7,72.3C77.7,72.3,77.8,72.3,77.7,72.3c0.1,0,0.1,0,0.1,0H77.7C77.7,72.3,77.7,72.3,77.7,72.3
			c0-0.1-0.1-0.1-0.1-0.1C77.6,72.2,77.6,72.2,77.7,72.3C77.7,72.2,77.7,72.2,77.7,72.3L77.7,72.3L77.7,72.3z M77.7,73.4L77.7,73.4
			L77.7,73.4z M77.5,75.5c0,0,0.1,0,0.1,0c0,0,0.1,0,0.1,0c0,0,0-0.1,0-0.1c0,0,0-0.1-0.1-0.1c0,0-0.1,0-0.1,0v0c0,0,0,0,0-0.1
			c0,0,0,0,0-0.1c0,0,0,0-0.1,0s0,0-0.1,0v0v0c0,0.1,0,0.1,0,0.1c0,0,0.1,0,0.1,0.1v0C77.5,75.4,77.5,75.4,77.5,75.5
			C77.5,75.5,77.5,75.5,77.5,75.5z M77.5,76.5C77.6,76.5,77.6,76.5,77.5,76.5C77.6,76.5,77.6,76.4,77.5,76.5z M77.5,77.1
			C77.5,77.1,77.6,77.1,77.5,77.1L77.5,77.1L77.5,77.1L77.5,77.1z M77.5,76.9C77.5,76.9,77.5,76.9,77.5,76.9c0.1,0.1,0.1,0.1,0.1,0
			C77.5,76.8,77.5,76.8,77.5,76.9z M77.5,75.8C77.5,75.8,77.5,75.8,77.5,75.8c0-0.1,0-0.1,0-0.1c-0.1,0-0.1,0.1-0.1,0.1H77.5z
			 M77.3,76.9c0-0.1,0.1-0.1,0.1-0.2c0-0.1-0.1-0.1-0.1-0.1c0,0-0.1-0.1-0.1-0.2c0,0.1,0,0.1,0,0.1c0,0,0,0.1,0,0.1c0,0,0,0.1,0,0.1
			c0,0,0,0.1,0,0.1C77.2,76.8,77.2,76.9,77.3,76.9z M77,75.5C77,75.5,77.1,75.5,77,75.5c0-0.1,0-0.1,0-0.1L77,75.4
			c0,0.1,0,0.1,0,0.1C76.9,75.5,77,75.5,77,75.5C77,75.5,77,75.5,77,75.5z M77,74.1L77,74.1L77,74.1L77,74.1L77,74.1z M77.1,73.7
			C77,73.7,77,73.7,77.1,73.7C77.1,73.8,77.1,73.8,77.1,73.7C77.1,73.8,77.1,73.7,77.1,73.7z M77.5,74.8
			C77.5,74.8,77.5,74.8,77.5,74.8L77.5,74.8C77.5,74.9,77.5,74.9,77.5,74.8L77.5,74.8z M78,75.7L78,75.7L78,75.7z M78.1,74.8
			C78.1,74.8,78.1,74.8,78.1,74.8c-0.1,0-0.1,0-0.1,0c0,0,0,0,0,0.1c0,0,0,0,0,0.1C78.1,75,78.1,74.9,78.1,74.8L78.1,74.8
			C78.1,74.8,78.1,74.8,78.1,74.8L78.1,74.8L78.1,74.8z M78.1,74.3L78.1,74.3L78.1,74.3L78.1,74.3z M78.1,71.7L78.1,71.7L78.1,71.7
			L78.1,71.7z M78.2,73.6L78.2,73.6L78.2,73.6L78.2,73.6z M84.1,70.2c0,0.1,0,0.2,0,0.3c0,0.1,0,0.2,0,0.3c0,0.2,0,0.3-0.2,0.3
			c-0.1,0-0.1,0-0.2,0c-0.1-0.1-0.1-0.1-0.1-0.2c0-0.2,0-0.3-0.1-0.4c-0.1-0.1-0.1-0.3-0.1-0.4c0-0.2-0.1-0.3-0.2-0.4
			c-0.1-0.1-0.3-0.2-0.4-0.2c-0.1,0-0.2,0-0.4,0c-0.1,0-0.2,0-0.4,0.1c-0.4,0.1-0.8,0.3-1.1,0.6c-0.3,0.3-0.6,0.6-0.8,0.9
			c-0.1,0.2-0.3,0.4-0.4,0.5c-0.1,0.2-0.2,0.4-0.3,0.5c-0.1,0.2-0.2,0.3-0.3,0.5c-0.1,0.2-0.1,0.3-0.2,0.5c0,0.1-0.1,0.2-0.1,0.4
			c0,0.1-0.1,0.2-0.1,0.3c-0.1,0.2-0.1,0.4-0.1,0.5c0,0.2-0.1,0.3-0.1,0.5c0,0.1,0,0.2,0,0.3c0,0.1,0,0.2,0,0.3
			c0,0.5,0.1,0.9,0.4,1.4c0.2,0.3,0.4,0.4,0.8,0.4c0.1,0,0.3-0.1,0.4-0.1c0.1,0,0.2-0.1,0.3-0.2c0.3-0.2,0.6-0.5,0.8-0.8
			c0.2-0.3,0.4-0.7,0.5-1.1c0.1-0.1,0.1-0.3,0.1-0.4c0-0.2,0.1-0.3,0.3-0.4c0.1-0.1,0.3-0.2,0.4-0.3c0.2-0.1,0.3-0.1,0.5-0.2
			c0.1,0,0.2,0,0.3,0.1c0.1,0.1,0.1,0.2,0.1,0.2c0,0.1,0,0.2,0,0.3c0,0.1,0,0.2,0.1,0.3c0,0.2,0,0.3,0,0.4c-0.1,0.2-0.1,0.4-0.1,0.6
			c0,0.2,0,0.4-0.1,0.6c-0.1,0.3-0.1,0.5-0.2,0.8c-0.1,0.3-0.1,0.5-0.2,0.8c-0.1,0.2-0.1,0.4-0.2,0.6c0,0.2-0.1,0.4-0.1,0.6
			c-0.1,0.2-0.1,0.5-0.2,0.7c-0.1,0.2-0.2,0.5-0.2,0.7c0,0,0,0.1,0,0.1c-0.2,0.3-0.4,0.7-0.5,1.1c-0.1,0.4-0.3,0.7-0.6,1
			c0,0.2-0.1,0.3-0.2,0.4c-0.1,0.1-0.2,0.2-0.3,0.3c-0.2,0.2-0.3,0.4-0.5,0.6c-0.2,0.2-0.4,0.4-0.6,0.5c-0.1,0-0.1,0.1-0.2,0.1
			c0,0.1-0.1,0.1-0.2,0.1c-0.4,0.2-0.8,0.3-1.3,0.3c-0.1,0-0.2,0-0.3,0c-0.1,0-0.2,0-0.3,0c-0.2,0-0.3-0.1-0.4-0.2
			c-0.1-0.1-0.2-0.3-0.2-0.4c-0.1-0.1-0.1-0.2-0.1-0.4c0-0.1,0.1-0.2,0.2-0.3c0.1,0,0.1,0.1,0.1,0.1c0,0,0.1,0.1,0.1,0.1
			c0.3,0.4,0.7,0.5,1.1,0.2c0.2-0.1,0.3-0.3,0.5-0.4c0.2-0.2,0.3-0.3,0.3-0.6c0-0.1,0.1-0.2,0.1-0.2c0.1,0,0.1-0.1,0.1-0.1
			c0-0.1,0-0.2,0-0.2c0-0.1,0.1-0.1,0.1-0.2c0.1-0.1,0.1-0.1,0.1-0.2c0-0.1,0.1-0.1,0.1-0.2c0-0.1,0-0.2,0.1-0.3
			c0.1-0.1,0.1-0.2,0.1-0.3c0-0.1,0.1-0.2,0.1-0.3c0-0.1,0.1-0.2,0.1-0.3c0-0.1,0-0.1,0-0.2c0-0.1,0.1-0.1,0.1-0.2
			c0.1-0.1,0.1-0.2,0.1-0.3c0-0.1,0-0.2,0-0.3c0-0.1,0-0.2,0-0.2c0.1-0.2,0.2-0.4,0.2-0.7c0-0.2,0.1-0.5,0.2-0.7c0,0,0-0.1,0-0.2
			c-0.2,0.1-0.4,0.2-0.6,0.3c-0.2,0.1-0.4,0.1-0.6,0.2c-0.1,0.1-0.2,0.1-0.4,0.1c-0.1,0-0.2,0-0.4,0c-0.2,0-0.3-0.1-0.5-0.1
			c-0.2,0-0.3-0.1-0.5-0.2c-0.2-0.1-0.3-0.2-0.5-0.3c-0.1-0.1-0.3-0.3-0.4-0.4c-0.2-0.3-0.4-0.6-0.4-1c-0.2-0.8-0.1-1.6,0-2.5
			c0-0.2,0.1-0.3,0.1-0.5c0-0.2,0.1-0.3,0.2-0.5c0.1-0.3,0.2-0.5,0.3-0.8c0.1-0.3,0.2-0.5,0.4-0.7c0.2-0.2,0.4-0.5,0.5-0.7
			c0.2-0.2,0.4-0.4,0.6-0.6c0.3-0.2,0.5-0.5,0.8-0.7c0.3-0.2,0.6-0.4,0.9-0.5c0.1-0.1,0.1-0.1,0.2-0.2c0.1,0,0.2-0.1,0.2-0.1
			c0.1,0,0.2,0,0.3-0.1c0.1,0,0.2-0.1,0.2-0.1c0,0,0.1-0.1,0.2-0.1c0.1,0,0.1,0,0.2,0c0.1,0,0.2,0,0.3,0c0.1,0,0.2,0,0.3,0
			c0.2,0,0.4,0,0.6,0.1c0.2,0.1,0.4,0.2,0.6,0.3c0.2,0.1,0.4,0.3,0.5,0.5C84,69.7,84.1,69.9,84.1,70.2z"/>
		<path class="st0" d="M122.4,33L122.4,33v-0.8l3.1-1.3c0-0.4,0-0.7,0.1-1.1l-2.8-1.8l0.3-1.7l3.2-0.8c0.1-0.3,0.2-0.6,0.3-0.9
			l-2.4-2.3l0.6-1.6l3.3-0.2c0.1-0.3,0.3-0.6,0.4-0.9l-2-2.6l0.8-1.5l3.3,0.4c0.2-0.3,0.4-0.5,0.5-0.8l-1.5-3l1.1-1.3l3.2,1
			c0.2-0.2,0.4-0.4,0.7-0.7l-1-3.2l1.3-1.1l3,1.5c0.3-0.2,0.5-0.4,0.8-0.5l-0.4-3.3l1.4-0.8l2.7,2c0.3-0.1,0.6-0.3,0.9-0.4l0.2-3.3
			l1.6-0.6l2.3,2.4c0.3-0.1,0.6-0.2,0.9-0.2l0.8-3.2l1.6-0.3l1.8,2.8c0.3,0,0.6,0,0.9-0.1l1.3-3.1h0.8v33v0H122.4z"/>
		<polygon class="st5" points="133.3,27.5 153.1,27.5 153.1,6.7 150.9,6.7 150.9,18.2 145,14.8 145,18.2 139.1,14.9 139.1,18.2 
			133.2,14.8 		"/>
		<path class="st4" d="M126.8,27v-0.9c0.2-2.8,2.6-4.7,5-4.7h2.1v2.9h-1.6c-1.9,0.1-2.7,2.1-1.9,3.5c0.9,1.5,3.2,1.6,4-0.1
			c0-0.1,0-0.2-0.1-0.3c-0.5-3.4,2.3-5.9,5-6h2.1v2.9H140c-1.9,0.1-2.7,2.1-1.9,3.5c0.9,1.5,3.2,1.6,4.1-0.1
			c0.1-0.2,0.2-0.5,0.2-0.8v-5.4h2.9v5.3v0c0,1.1,0.7,1.8,1.5,2.1c-0.2-0.4-0.3-0.9-0.4-1.4c-0.5-3.4,2.3-5.9,5-6h2.1v2.9h-1.6
			c-1.9,0.1-2.7,2.1-1.9,3.5c0.4,0.7,1.1,1.1,1.8,1.1h3.7v2.9h-3.6c-0.8,0-1.8-0.1-2.5-0.5c-2.2,1-4.6,0.3-6-1.1
			c-2.2,2.3-5.6,2-7.6,0c-2.9,3.1-8.2,1.6-8.9-2.8C126.9,27.2,126.8,27.1,126.8,27 M145.3,20.8h-2.9v-2.2h2.9V20.8z"/>
	</g>
</g>
</svg>